ISO-10303-21;
HEADER;
/* Generated by software containing ST-Developer
 * from STEP Tools, Inc. (www.steptools.com) 
 */

FILE_DESCRIPTION(
/* description */ (''),
/* implementation_level */ '2;1');

FILE_NAME(
/* name */ 'tty-buddy-lid.step',
/* time_stamp */ '2026-09-05T19:10:28+02:00',
/* author */ (''),
/* organization */ (''),
/* preprocessor_version */ 'ST-DEVELOPER v20.1',
/* originating_system */ 'Autodesk Translation Framework v15.8.0.0',
/* authorisation */ '');

FILE_SCHEMA (('AUTOMOTIVE_DESIGN { 1 0 10303 214 3 1 1 }'));
ENDSEC;

DATA;
#10=MECHANICAL_DESIGN_GEOMETRIC_PRESENTATION_REPRESENTATION('',(#13),#499);
#11=SHAPE_REPRESENTATION_RELATIONSHIP('SRR','None',#506,#12);
#12=ADVANCED_BREP_SHAPE_REPRESENTATION('',(#14),#498);
#13=STYLED_ITEM('',(#515),#14);
#14=MANIFOLD_SOLID_BREP('lid',#295);
#15=FACE_BOUND('',#70,.T.);
#16=FACE_BOUND('',#72,.T.);
#17=FACE_BOUND('',#73,.T.);
#18=FACE_BOUND('',#74,.T.);
#19=FACE_BOUND('',#75,.T.);
#20=FACE_BOUND('',#76,.T.);
#21=PLANE('',#312);
#22=PLANE('',#316);
#23=PLANE('',#320);
#24=PLANE('',#324);
#25=PLANE('',#325);
#26=PLANE('',#326);
#27=PLANE('',#327);
#28=PLANE('',#328);
#29=PLANE('',#329);
#30=PLANE('',#330);
#31=PLANE('',#331);
#32=PLANE('',#332);
#33=PLANE('',#333);
#34=PLANE('',#334);
#35=FACE_OUTER_BOUND('',#53,.T.);
#36=FACE_OUTER_BOUND('',#54,.T.);
#37=FACE_OUTER_BOUND('',#55,.T.);
#38=FACE_OUTER_BOUND('',#56,.T.);
#39=FACE_OUTER_BOUND('',#57,.T.);
#40=FACE_OUTER_BOUND('',#58,.T.);
#41=FACE_OUTER_BOUND('',#59,.T.);
#42=FACE_OUTER_BOUND('',#60,.T.);
#43=FACE_OUTER_BOUND('',#61,.T.);
#44=FACE_OUTER_BOUND('',#62,.T.);
#45=FACE_OUTER_BOUND('',#63,.T.);
#46=FACE_OUTER_BOUND('',#64,.T.);
#47=FACE_OUTER_BOUND('',#65,.T.);
#48=FACE_OUTER_BOUND('',#66,.T.);
#49=FACE_OUTER_BOUND('',#67,.T.);
#50=FACE_OUTER_BOUND('',#68,.T.);
#51=FACE_OUTER_BOUND('',#69,.T.);
#52=FACE_OUTER_BOUND('',#71,.T.);
#53=EDGE_LOOP('',(#201,#202,#203,#204));
#54=EDGE_LOOP('',(#205));
#55=EDGE_LOOP('',(#206,#207,#208,#209));
#56=EDGE_LOOP('',(#210));
#57=EDGE_LOOP('',(#211,#212,#213,#214));
#58=EDGE_LOOP('',(#215));
#59=EDGE_LOOP('',(#216,#217,#218,#219));
#60=EDGE_LOOP('',(#220));
#61=EDGE_LOOP('',(#221,#222,#223,#224));
#62=EDGE_LOOP('',(#225,#226,#227,#228));
#63=EDGE_LOOP('',(#229,#230,#231,#232));
#64=EDGE_LOOP('',(#233,#234,#235,#236));
#65=EDGE_LOOP('',(#237,#238,#239,#240));
#66=EDGE_LOOP('',(#241,#242,#243,#244));
#67=EDGE_LOOP('',(#245,#246,#247,#248));
#68=EDGE_LOOP('',(#249,#250,#251,#252));
#69=EDGE_LOOP('',(#253,#254,#255,#256));
#70=EDGE_LOOP('',(#257,#258,#259,#260));
#71=EDGE_LOOP('',(#261,#262,#263,#264));
#72=EDGE_LOOP('',(#265,#266,#267,#268));
#73=EDGE_LOOP('',(#269));
#74=EDGE_LOOP('',(#270));
#75=EDGE_LOOP('',(#271));
#76=EDGE_LOOP('',(#272));
#77=LINE('',#422,#105);
#78=LINE('',#429,#106);
#79=LINE('',#436,#107);
#80=LINE('',#443,#108);
#81=LINE('',#449,#109);
#82=LINE('',#451,#110);
#83=LINE('',#453,#111);
#84=LINE('',#454,#112);
#85=LINE('',#457,#113);
#86=LINE('',#459,#114);
#87=LINE('',#460,#115);
#88=LINE('',#463,#116);
#89=LINE('',#465,#117);
#90=LINE('',#466,#118);
#91=LINE('',#468,#119);
#92=LINE('',#469,#120);
#93=LINE('',#473,#121);
#94=LINE('',#475,#122);
#95=LINE('',#477,#123);
#96=LINE('',#478,#124);
#97=LINE('',#481,#125);
#98=LINE('',#483,#126);
#99=LINE('',#484,#127);
#100=LINE('',#487,#128);
#101=LINE('',#489,#129);
#102=LINE('',#490,#130);
#103=LINE('',#492,#131);
#104=LINE('',#493,#132);
#105=VECTOR('',#341,1.25);
#106=VECTOR('',#350,1.25);
#107=VECTOR('',#359,1.25);
#108=VECTOR('',#368,1.25);
#109=VECTOR('',#375,10.);
#110=VECTOR('',#376,10.);
#111=VECTOR('',#377,10.);
#112=VECTOR('',#378,10.);
#113=VECTOR('',#381,10.);
#114=VECTOR('',#382,10.);
#115=VECTOR('',#383,10.);
#116=VECTOR('',#386,10.);
#117=VECTOR('',#387,10.);
#118=VECTOR('',#388,10.);
#119=VECTOR('',#391,10.);
#120=VECTOR('',#392,10.);
#121=VECTOR('',#395,10.);
#122=VECTOR('',#396,10.);
#123=VECTOR('',#397,10.);
#124=VECTOR('',#398,10.);
#125=VECTOR('',#401,10.);
#126=VECTOR('',#402,10.);
#127=VECTOR('',#403,10.);
#128=VECTOR('',#406,10.);
#129=VECTOR('',#407,10.);
#130=VECTOR('',#408,10.);
#131=VECTOR('',#411,10.);
#132=VECTOR('',#412,10.);
#133=CIRCLE('',#310,1.25);
#134=CIRCLE('',#311,1.25);
#135=CIRCLE('',#314,1.25);
#136=CIRCLE('',#315,1.25);
#137=CIRCLE('',#318,1.25);
#138=CIRCLE('',#319,1.25);
#139=CIRCLE('',#322,1.25);
#140=CIRCLE('',#323,1.25);
#141=VERTEX_POINT('',#419);
#142=VERTEX_POINT('',#421);
#143=VERTEX_POINT('',#426);
#144=VERTEX_POINT('',#428);
#145=VERTEX_POINT('',#433);
#146=VERTEX_POINT('',#435);
#147=VERTEX_POINT('',#440);
#148=VERTEX_POINT('',#442);
#149=VERTEX_POINT('',#447);
#150=VERTEX_POINT('',#448);
#151=VERTEX_POINT('',#450);
#152=VERTEX_POINT('',#452);
#153=VERTEX_POINT('',#456);
#154=VERTEX_POINT('',#458);
#155=VERTEX_POINT('',#462);
#156=VERTEX_POINT('',#464);
#157=VERTEX_POINT('',#471);
#158=VERTEX_POINT('',#472);
#159=VERTEX_POINT('',#474);
#160=VERTEX_POINT('',#476);
#161=VERTEX_POINT('',#480);
#162=VERTEX_POINT('',#482);
#163=VERTEX_POINT('',#486);
#164=VERTEX_POINT('',#488);
#165=EDGE_CURVE('',#141,#141,#133,.T.);
#166=EDGE_CURVE('',#141,#142,#77,.T.);
#167=EDGE_CURVE('',#142,#142,#134,.T.);
#168=EDGE_CURVE('',#143,#143,#135,.T.);
#169=EDGE_CURVE('',#143,#144,#78,.T.);
#170=EDGE_CURVE('',#144,#144,#136,.T.);
#171=EDGE_CURVE('',#145,#145,#137,.T.);
#172=EDGE_CURVE('',#145,#146,#79,.T.);
#173=EDGE_CURVE('',#146,#146,#138,.T.);
#174=EDGE_CURVE('',#147,#147,#139,.T.);
#175=EDGE_CURVE('',#147,#148,#80,.T.);
#176=EDGE_CURVE('',#148,#148,#140,.T.);
#177=EDGE_CURVE('',#149,#150,#81,.T.);
#178=EDGE_CURVE('',#149,#151,#82,.T.);
#179=EDGE_CURVE('',#152,#151,#83,.T.);
#180=EDGE_CURVE('',#150,#152,#84,.T.);
#181=EDGE_CURVE('',#153,#149,#85,.T.);
#182=EDGE_CURVE('',#153,#154,#86,.T.);
#183=EDGE_CURVE('',#151,#154,#87,.T.);
#184=EDGE_CURVE('',#155,#153,#88,.T.);
#185=EDGE_CURVE('',#155,#156,#89,.T.);
#186=EDGE_CURVE('',#154,#156,#90,.T.);
#187=EDGE_CURVE('',#150,#155,#91,.T.);
#188=EDGE_CURVE('',#156,#152,#92,.T.);
#189=EDGE_CURVE('',#157,#158,#93,.T.);
#190=EDGE_CURVE('',#157,#159,#94,.T.);
#191=EDGE_CURVE('',#160,#159,#95,.T.);
#192=EDGE_CURVE('',#158,#160,#96,.T.);
#193=EDGE_CURVE('',#158,#161,#97,.T.);
#194=EDGE_CURVE('',#162,#160,#98,.T.);
#195=EDGE_CURVE('',#161,#162,#99,.T.);
#196=EDGE_CURVE('',#161,#163,#100,.T.);
#197=EDGE_CURVE('',#164,#162,#101,.T.);
#198=EDGE_CURVE('',#163,#164,#102,.T.);
#199=EDGE_CURVE('',#163,#157,#103,.T.);
#200=EDGE_CURVE('',#159,#164,#104,.T.);
#201=ORIENTED_EDGE('',*,*,#165,.F.);
#202=ORIENTED_EDGE('',*,*,#166,.T.);
#203=ORIENTED_EDGE('',*,*,#167,.T.);
#204=ORIENTED_EDGE('',*,*,#166,.F.);
#205=ORIENTED_EDGE('',*,*,#167,.F.);
#206=ORIENTED_EDGE('',*,*,#168,.F.);
#207=ORIENTED_EDGE('',*,*,#169,.T.);
#208=ORIENTED_EDGE('',*,*,#170,.T.);
#209=ORIENTED_EDGE('',*,*,#169,.F.);
#210=ORIENTED_EDGE('',*,*,#170,.F.);
#211=ORIENTED_EDGE('',*,*,#171,.F.);
#212=ORIENTED_EDGE('',*,*,#172,.T.);
#213=ORIENTED_EDGE('',*,*,#173,.T.);
#214=ORIENTED_EDGE('',*,*,#172,.F.);
#215=ORIENTED_EDGE('',*,*,#173,.F.);
#216=ORIENTED_EDGE('',*,*,#174,.F.);
#217=ORIENTED_EDGE('',*,*,#175,.T.);
#218=ORIENTED_EDGE('',*,*,#176,.T.);
#219=ORIENTED_EDGE('',*,*,#175,.F.);
#220=ORIENTED_EDGE('',*,*,#176,.F.);
#221=ORIENTED_EDGE('',*,*,#177,.F.);
#222=ORIENTED_EDGE('',*,*,#178,.T.);
#223=ORIENTED_EDGE('',*,*,#179,.F.);
#224=ORIENTED_EDGE('',*,*,#180,.F.);
#225=ORIENTED_EDGE('',*,*,#181,.F.);
#226=ORIENTED_EDGE('',*,*,#182,.T.);
#227=ORIENTED_EDGE('',*,*,#183,.F.);
#228=ORIENTED_EDGE('',*,*,#178,.F.);
#229=ORIENTED_EDGE('',*,*,#184,.F.);
#230=ORIENTED_EDGE('',*,*,#185,.T.);
#231=ORIENTED_EDGE('',*,*,#186,.F.);
#232=ORIENTED_EDGE('',*,*,#182,.F.);
#233=ORIENTED_EDGE('',*,*,#187,.F.);
#234=ORIENTED_EDGE('',*,*,#180,.T.);
#235=ORIENTED_EDGE('',*,*,#188,.F.);
#236=ORIENTED_EDGE('',*,*,#185,.F.);
#237=ORIENTED_EDGE('',*,*,#189,.F.);
#238=ORIENTED_EDGE('',*,*,#190,.T.);
#239=ORIENTED_EDGE('',*,*,#191,.F.);
#240=ORIENTED_EDGE('',*,*,#192,.F.);
#241=ORIENTED_EDGE('',*,*,#193,.F.);
#242=ORIENTED_EDGE('',*,*,#192,.T.);
#243=ORIENTED_EDGE('',*,*,#194,.F.);
#244=ORIENTED_EDGE('',*,*,#195,.F.);
#245=ORIENTED_EDGE('',*,*,#196,.F.);
#246=ORIENTED_EDGE('',*,*,#195,.T.);
#247=ORIENTED_EDGE('',*,*,#197,.F.);
#248=ORIENTED_EDGE('',*,*,#198,.F.);
#249=ORIENTED_EDGE('',*,*,#199,.F.);
#250=ORIENTED_EDGE('',*,*,#198,.T.);
#251=ORIENTED_EDGE('',*,*,#200,.F.);
#252=ORIENTED_EDGE('',*,*,#190,.F.);
#253=ORIENTED_EDGE('',*,*,#200,.T.);
#254=ORIENTED_EDGE('',*,*,#197,.T.);
#255=ORIENTED_EDGE('',*,*,#194,.T.);
#256=ORIENTED_EDGE('',*,*,#191,.T.);
#257=ORIENTED_EDGE('',*,*,#177,.T.);
#258=ORIENTED_EDGE('',*,*,#187,.T.);
#259=ORIENTED_EDGE('',*,*,#184,.T.);
#260=ORIENTED_EDGE('',*,*,#181,.T.);
#261=ORIENTED_EDGE('',*,*,#199,.T.);
#262=ORIENTED_EDGE('',*,*,#189,.T.);
#263=ORIENTED_EDGE('',*,*,#193,.T.);
#264=ORIENTED_EDGE('',*,*,#196,.T.);
#265=ORIENTED_EDGE('',*,*,#179,.T.);
#266=ORIENTED_EDGE('',*,*,#183,.T.);
#267=ORIENTED_EDGE('',*,*,#186,.T.);
#268=ORIENTED_EDGE('',*,*,#188,.T.);
#269=ORIENTED_EDGE('',*,*,#174,.T.);
#270=ORIENTED_EDGE('',*,*,#171,.T.);
#271=ORIENTED_EDGE('',*,*,#168,.T.);
#272=ORIENTED_EDGE('',*,*,#165,.T.);
#273=CYLINDRICAL_SURFACE('',#309,1.25);
#274=CYLINDRICAL_SURFACE('',#313,1.25);
#275=CYLINDRICAL_SURFACE('',#317,1.25);
#276=CYLINDRICAL_SURFACE('',#321,1.25);
#277=ADVANCED_FACE('',(#35),#273,.F.);
#278=ADVANCED_FACE('',(#36),#21,.F.);
#279=ADVANCED_FACE('',(#37),#274,.F.);
#280=ADVANCED_FACE('',(#38),#22,.F.);
#281=ADVANCED_FACE('',(#39),#275,.F.);
#282=ADVANCED_FACE('',(#40),#23,.F.);
#283=ADVANCED_FACE('',(#41),#276,.F.);
#284=ADVANCED_FACE('',(#42),#24,.F.);
#285=ADVANCED_FACE('',(#43),#25,.F.);
#286=ADVANCED_FACE('',(#44),#26,.F.);
#287=ADVANCED_FACE('',(#45),#27,.F.);
#288=ADVANCED_FACE('',(#46),#28,.F.);
#289=ADVANCED_FACE('',(#47),#29,.T.);
#290=ADVANCED_FACE('',(#48),#30,.T.);
#291=ADVANCED_FACE('',(#49),#31,.T.);
#292=ADVANCED_FACE('',(#50),#32,.T.);
#293=ADVANCED_FACE('',(#51,#15),#33,.T.);
#294=ADVANCED_FACE('',(#52,#16,#17,#18,#19,#20),#34,.F.);
#295=CLOSED_SHELL('',(#277,#278,#279,#280,#281,#282,#283,#284,#285,#286,
#287,#288,#289,#290,#291,#292,#293,#294));
#296=DERIVED_UNIT_ELEMENT(#298,1.);
#297=DERIVED_UNIT_ELEMENT(#501,-3.);
#298=(
MASS_UNIT()
NAMED_UNIT(*)
SI_UNIT(.KILO.,.GRAM.)
);
#299=DERIVED_UNIT((#296,#297));
#300=MEASURE_REPRESENTATION_ITEM('density measure',
POSITIVE_RATIO_MEASURE(7850.),#299);
#301=PROPERTY_DEFINITION_REPRESENTATION(#306,#303);
#302=PROPERTY_DEFINITION_REPRESENTATION(#307,#304);
#303=REPRESENTATION('material name',(#305),#498);
#304=REPRESENTATION('density',(#300),#498);
#305=DESCRIPTIVE_REPRESENTATION_ITEM('Steel','Steel');
#306=PROPERTY_DEFINITION('material property','material name',#508);
#307=PROPERTY_DEFINITION('material property','density of part',#508);
#308=AXIS2_PLACEMENT_3D('',#417,#335,#336);
#309=AXIS2_PLACEMENT_3D('',#418,#337,#338);
#310=AXIS2_PLACEMENT_3D('',#420,#339,#340);
#311=AXIS2_PLACEMENT_3D('',#423,#342,#343);
#312=AXIS2_PLACEMENT_3D('',#424,#344,#345);
#313=AXIS2_PLACEMENT_3D('',#425,#346,#347);
#314=AXIS2_PLACEMENT_3D('',#427,#348,#349);
#315=AXIS2_PLACEMENT_3D('',#430,#351,#352);
#316=AXIS2_PLACEMENT_3D('',#431,#353,#354);
#317=AXIS2_PLACEMENT_3D('',#432,#355,#356);
#318=AXIS2_PLACEMENT_3D('',#434,#357,#358);
#319=AXIS2_PLACEMENT_3D('',#437,#360,#361);
#320=AXIS2_PLACEMENT_3D('',#438,#362,#363);
#321=AXIS2_PLACEMENT_3D('',#439,#364,#365);
#322=AXIS2_PLACEMENT_3D('',#441,#366,#367);
#323=AXIS2_PLACEMENT_3D('',#444,#369,#370);
#324=AXIS2_PLACEMENT_3D('',#445,#371,#372);
#325=AXIS2_PLACEMENT_3D('',#446,#373,#374);
#326=AXIS2_PLACEMENT_3D('',#455,#379,#380);
#327=AXIS2_PLACEMENT_3D('',#461,#384,#385);
#328=AXIS2_PLACEMENT_3D('',#467,#389,#390);
#329=AXIS2_PLACEMENT_3D('',#470,#393,#394);
#330=AXIS2_PLACEMENT_3D('',#479,#399,#400);
#331=AXIS2_PLACEMENT_3D('',#485,#404,#405);
#332=AXIS2_PLACEMENT_3D('',#491,#409,#410);
#333=AXIS2_PLACEMENT_3D('',#494,#413,#414);
#334=AXIS2_PLACEMENT_3D('',#495,#415,#416);
#335=DIRECTION('axis',(0.,0.,1.));
#336=DIRECTION('refdir',(1.,0.,0.));
#337=DIRECTION('center_axis',(0.,0.,1.));
#338=DIRECTION('ref_axis',(-1.,0.,0.));
#339=DIRECTION('center_axis',(0.,0.,1.));
#340=DIRECTION('ref_axis',(-1.,0.,0.));
#341=DIRECTION('',(0.,0.,1.));
#342=DIRECTION('center_axis',(0.,0.,1.));
#343=DIRECTION('ref_axis',(-1.,0.,0.));
#344=DIRECTION('center_axis',(0.,0.,1.));
#345=DIRECTION('ref_axis',(-1.,0.,0.));
#346=DIRECTION('center_axis',(0.,0.,1.));
#347=DIRECTION('ref_axis',(-1.,0.,0.));
#348=DIRECTION('center_axis',(0.,0.,1.));
#349=DIRECTION('ref_axis',(-1.,0.,0.));
#350=DIRECTION('',(0.,0.,1.));
#351=DIRECTION('center_axis',(0.,0.,1.));
#352=DIRECTION('ref_axis',(-1.,0.,0.));
#353=DIRECTION('center_axis',(0.,0.,1.));
#354=DIRECTION('ref_axis',(-1.,0.,0.));
#355=DIRECTION('center_axis',(0.,0.,1.));
#356=DIRECTION('ref_axis',(-1.,0.,0.));
#357=DIRECTION('center_axis',(0.,0.,1.));
#358=DIRECTION('ref_axis',(-1.,0.,0.));
#359=DIRECTION('',(0.,0.,1.));
#360=DIRECTION('center_axis',(0.,0.,1.));
#361=DIRECTION('ref_axis',(-1.,0.,0.));
#362=DIRECTION('center_axis',(0.,0.,1.));
#363=DIRECTION('ref_axis',(-1.,0.,0.));
#364=DIRECTION('center_axis',(0.,0.,1.));
#365=DIRECTION('ref_axis',(-1.,0.,0.));
#366=DIRECTION('center_axis',(0.,0.,1.));
#367=DIRECTION('ref_axis',(-1.,0.,0.));
#368=DIRECTION('',(0.,0.,1.));
#369=DIRECTION('center_axis',(0.,0.,1.));
#370=DIRECTION('ref_axis',(-1.,0.,0.));
#371=DIRECTION('center_axis',(0.,0.,1.));
#372=DIRECTION('ref_axis',(-1.,0.,0.));
#373=DIRECTION('center_axis',(-1.,0.,0.));
#374=DIRECTION('ref_axis',(0.,1.,0.));
#375=DIRECTION('',(0.,1.,0.));
#376=DIRECTION('',(0.,0.,-1.));
#377=DIRECTION('',(0.,-1.,0.));
#378=DIRECTION('',(0.,0.,-1.));
#379=DIRECTION('center_axis',(0.,-1.,0.));
#380=DIRECTION('ref_axis',(-1.,0.,0.));
#381=DIRECTION('',(-1.,0.,0.));
#382=DIRECTION('',(0.,0.,-1.));
#383=DIRECTION('',(1.,0.,0.));
#384=DIRECTION('center_axis',(1.,0.,0.));
#385=DIRECTION('ref_axis',(0.,-1.,0.));
#386=DIRECTION('',(0.,-1.,0.));
#387=DIRECTION('',(0.,0.,-1.));
#388=DIRECTION('',(0.,1.,0.));
#389=DIRECTION('center_axis',(0.,1.,0.));
#390=DIRECTION('ref_axis',(1.,0.,0.));
#391=DIRECTION('',(1.,0.,0.));
#392=DIRECTION('',(-1.,0.,0.));
#393=DIRECTION('center_axis',(-1.,0.,0.));
#394=DIRECTION('ref_axis',(0.,-1.,0.));
#395=DIRECTION('',(0.,1.,0.));
#396=DIRECTION('',(0.,0.,1.));
#397=DIRECTION('',(0.,-1.,0.));
#398=DIRECTION('',(0.,0.,1.));
#399=DIRECTION('center_axis',(0.,1.,0.));
#400=DIRECTION('ref_axis',(-1.,0.,0.));
#401=DIRECTION('',(1.,0.,0.));
#402=DIRECTION('',(-1.,0.,0.));
#403=DIRECTION('',(0.,0.,1.));
#404=DIRECTION('center_axis',(1.,0.,0.));
#405=DIRECTION('ref_axis',(0.,1.,0.));
#406=DIRECTION('',(0.,-1.,0.));
#407=DIRECTION('',(0.,1.,0.));
#408=DIRECTION('',(0.,0.,1.));
#409=DIRECTION('center_axis',(0.,-1.,0.));
#410=DIRECTION('ref_axis',(1.,0.,0.));
#411=DIRECTION('',(-1.,0.,0.));
#412=DIRECTION('',(1.,0.,0.));
#413=DIRECTION('center_axis',(0.,0.,1.));
#414=DIRECTION('ref_axis',(1.,0.,0.));
#415=DIRECTION('center_axis',(0.,0.,1.));
#416=DIRECTION('ref_axis',(-1.,0.,0.));
#417=CARTESIAN_POINT('',(0.,0.,0.));
#418=CARTESIAN_POINT('Origin',(-38.1599999999997,-19.8799999999998,2.25));
#419=CARTESIAN_POINT('',(-36.9099999999997,-19.8799999999998,5.2));
#420=CARTESIAN_POINT('Origin',(-38.1599999999997,-19.8799999999998,5.2));
#421=CARTESIAN_POINT('',(-36.9099999999997,-19.8799999999998,6.5));
#422=CARTESIAN_POINT('',(-36.9099999999997,-19.8799999999998,2.25));
#423=CARTESIAN_POINT('Origin',(-38.1599999999997,-19.8799999999998,6.5));
#424=CARTESIAN_POINT('Origin',(-38.1599999999997,-19.8799999999998,6.5));
#425=CARTESIAN_POINT('Origin',(38.1600000000003,19.8800000000002,2.25));
#426=CARTESIAN_POINT('',(39.4100000000003,19.8800000000002,5.2));
#427=CARTESIAN_POINT('Origin',(38.1600000000003,19.8800000000002,5.2));
#428=CARTESIAN_POINT('',(39.4100000000003,19.8800000000002,6.5));
#429=CARTESIAN_POINT('',(39.4100000000003,19.8800000000002,2.25));
#430=CARTESIAN_POINT('Origin',(38.1600000000003,19.8800000000002,6.5));
#431=CARTESIAN_POINT('Origin',(38.1600000000003,19.8800000000002,6.5));
#432=CARTESIAN_POINT('Origin',(38.1600000000003,-19.8799999999998,2.25));
#433=CARTESIAN_POINT('',(39.4100000000003,-19.8799999999998,5.2));
#434=CARTESIAN_POINT('Origin',(38.1600000000003,-19.8799999999998,5.2));
#435=CARTESIAN_POINT('',(39.4100000000003,-19.8799999999998,6.5));
#436=CARTESIAN_POINT('',(39.4100000000003,-19.8799999999998,2.25));
#437=CARTESIAN_POINT('Origin',(38.1600000000003,-19.8799999999998,6.5));
#438=CARTESIAN_POINT('Origin',(38.1600000000003,-19.8799999999998,6.5));
#439=CARTESIAN_POINT('Origin',(-38.1599999999997,19.8800000000002,2.25));
#440=CARTESIAN_POINT('',(-36.9099999999997,19.8800000000002,5.2));
#441=CARTESIAN_POINT('Origin',(-38.1599999999997,19.8800000000002,5.2));
#442=CARTESIAN_POINT('',(-36.9099999999997,19.8800000000002,6.5));
#443=CARTESIAN_POINT('',(-36.9099999999997,19.8800000000002,2.25));
#444=CARTESIAN_POINT('Origin',(-38.1599999999997,19.8800000000002,6.5));
#445=CARTESIAN_POINT('Origin',(-38.1599999999997,19.8800000000002,6.5));
#446=CARTESIAN_POINT('Origin',(-35.4,-25.8,7.9));
#447=CARTESIAN_POINT('',(-35.4,-25.8,7.9));
#448=CARTESIAN_POINT('',(-35.4,25.8,7.9));
#449=CARTESIAN_POINT('',(-35.4,-11.8999999999999,7.9));
#450=CARTESIAN_POINT('',(-35.4,-25.8,5.2));
#451=CARTESIAN_POINT('',(-35.4,-25.8,7.9));
#452=CARTESIAN_POINT('',(-35.4,25.8,5.2));
#453=CARTESIAN_POINT('',(-35.4,-11.8999999999999,5.2));
#454=CARTESIAN_POINT('',(-35.4,25.8,7.9));
#455=CARTESIAN_POINT('Origin',(35.4,-25.8,7.9));
#456=CARTESIAN_POINT('',(35.4,-25.8,7.9));
#457=CARTESIAN_POINT('',(17.7000000000002,-25.8,7.9));
#458=CARTESIAN_POINT('',(35.4,-25.8,5.2));
#459=CARTESIAN_POINT('',(35.4,-25.8,7.9));
#460=CARTESIAN_POINT('',(17.7000000000002,-25.8,5.2));
#461=CARTESIAN_POINT('Origin',(35.4,25.8,7.9));
#462=CARTESIAN_POINT('',(35.4,25.8,7.9));
#463=CARTESIAN_POINT('',(35.4,13.9000000000001,7.9));
#464=CARTESIAN_POINT('',(35.4,25.8,5.2));
#465=CARTESIAN_POINT('',(35.4,25.8,7.9));
#466=CARTESIAN_POINT('',(35.4,13.9000000000001,5.2));
#467=CARTESIAN_POINT('Origin',(-35.4,25.8,7.9));
#468=CARTESIAN_POINT('',(-17.6999999999999,25.8,7.9));
#469=CARTESIAN_POINT('',(-17.6999999999999,25.8,5.2));
#470=CARTESIAN_POINT('Origin',(-42.9999999999997,33.7500000000002,5.2));
#471=CARTESIAN_POINT('',(-42.9999999999997,-29.7499999999998,5.2));
#472=CARTESIAN_POINT('',(-42.9999999999997,33.7500000000002,5.2));
#473=CARTESIAN_POINT('',(-42.9999999999997,-29.7499999999998,5.2));
#474=CARTESIAN_POINT('',(-42.9999999999997,-29.7499999999998,7.9));
#475=CARTESIAN_POINT('',(-42.9999999999997,-29.7499999999998,5.2));
#476=CARTESIAN_POINT('',(-42.9999999999997,33.7500000000002,7.9));
#477=CARTESIAN_POINT('',(-42.9999999999997,-29.7499999999998,7.9));
#478=CARTESIAN_POINT('',(-42.9999999999997,33.7500000000002,5.2));
#479=CARTESIAN_POINT('Origin',(43.0000000000003,33.7500000000002,5.2));
#480=CARTESIAN_POINT('',(43.0000000000003,33.7500000000002,5.2));
#481=CARTESIAN_POINT('',(-42.9999999999997,33.7500000000002,5.2));
#482=CARTESIAN_POINT('',(43.0000000000003,33.7500000000002,7.9));
#483=CARTESIAN_POINT('',(-42.9999999999997,33.7500000000002,7.9));
#484=CARTESIAN_POINT('',(43.0000000000003,33.7500000000002,5.2));
#485=CARTESIAN_POINT('Origin',(43.0000000000003,-29.7499999999998,5.2));
#486=CARTESIAN_POINT('',(43.0000000000003,-29.7499999999998,5.2));
#487=CARTESIAN_POINT('',(43.0000000000003,33.7500000000002,5.2));
#488=CARTESIAN_POINT('',(43.0000000000003,-29.7499999999998,7.9));
#489=CARTESIAN_POINT('',(43.0000000000003,33.7500000000002,7.9));
#490=CARTESIAN_POINT('',(43.0000000000003,-29.7499999999998,5.2));
#491=CARTESIAN_POINT('Origin',(-42.9999999999997,-29.7499999999998,5.2));
#492=CARTESIAN_POINT('',(43.0000000000003,-29.7499999999998,5.2));
#493=CARTESIAN_POINT('',(43.0000000000003,-29.7499999999998,7.9));
#494=CARTESIAN_POINT('Origin',(3.01980662698043E-13,2.00000000000018,7.9));
#495=CARTESIAN_POINT('Origin',(3.01980662698043E-13,2.00000000000018,5.2));
#496=UNCERTAINTY_MEASURE_WITH_UNIT(LENGTH_MEASURE(0.01),#500,
'DISTANCE_ACCURACY_VALUE',
'Maximum model space distance between geometric entities at asserted c
onnectivities');
#497=UNCERTAINTY_MEASURE_WITH_UNIT(LENGTH_MEASURE(0.01),#500,
'DISTANCE_ACCURACY_VALUE',
'Maximum model space distance between geometric entities at asserted c
onnectivities');
#498=(
GEOMETRIC_REPRESENTATION_CONTEXT(3)
GLOBAL_UNCERTAINTY_ASSIGNED_CONTEXT((#496))
GLOBAL_UNIT_ASSIGNED_CONTEXT((#500,#502,#503))
REPRESENTATION_CONTEXT('','3D')
);
#499=(
GEOMETRIC_REPRESENTATION_CONTEXT(3)
GLOBAL_UNCERTAINTY_ASSIGNED_CONTEXT((#497))
GLOBAL_UNIT_ASSIGNED_CONTEXT((#500,#502,#503))
REPRESENTATION_CONTEXT('','3D')
);
#500=(
LENGTH_UNIT()
NAMED_UNIT(*)
SI_UNIT(.MILLI.,.METRE.)
);
#501=(
LENGTH_UNIT()
NAMED_UNIT(*)
SI_UNIT($,.METRE.)
);
#502=(
NAMED_UNIT(*)
PLANE_ANGLE_UNIT()
SI_UNIT($,.RADIAN.)
);
#503=(
NAMED_UNIT(*)
SI_UNIT($,.STERADIAN.)
SOLID_ANGLE_UNIT()
);
#504=SHAPE_DEFINITION_REPRESENTATION(#505,#506);
#505=PRODUCT_DEFINITION_SHAPE('',$,#508);
#506=SHAPE_REPRESENTATION('',(#308),#498);
#507=PRODUCT_DEFINITION_CONTEXT('part definition',#512,'design');
#508=PRODUCT_DEFINITION('2026-09-05-10-40-58-027','tty-buddy',#509,#507);
#509=PRODUCT_DEFINITION_FORMATION('',$,#514);
#510=PRODUCT_RELATED_PRODUCT_CATEGORY('tty-buddy','tty-buddy',(#514));
#511=APPLICATION_PROTOCOL_DEFINITION('international standard',
'automotive_design',2009,#512);
#512=APPLICATION_CONTEXT(
'Core Data for Automotive Mechanical Design Process');
#513=PRODUCT_CONTEXT('part definition',#512,'mechanical');
#514=PRODUCT('2026-09-05-10-40-58-027','tty-buddy',$,(#513));
#515=PRESENTATION_STYLE_ASSIGNMENT((#516));
#516=SURFACE_STYLE_USAGE(.BOTH.,#517);
#517=SURFACE_SIDE_STYLE('',(#518));
#518=SURFACE_STYLE_FILL_AREA(#519);
#519=FILL_AREA_STYLE('Steel - Satin',(#520));
#520=FILL_AREA_STYLE_COLOUR('Steel - Satin',#521);
#521=COLOUR_RGB('Steel - Satin',0.627450980392157,0.627450980392157,0.627450980392157);
ENDSEC;
END-ISO-10303-21;
