ISO-10303-21;
HEADER;
/* Generated by software containing ST-Developer
 * from STEP Tools, Inc. (www.steptools.com) 
 */

FILE_DESCRIPTION(
/* description */ (''),
/* implementation_level */ '2;1');

FILE_NAME(
/* name */ 'tty-buddy-body.step',
/* time_stamp */ '2026-09-05T19:08:32+02:00',
/* author */ (''),
/* organization */ (''),
/* preprocessor_version */ 'ST-DEVELOPER v20.1',
/* originating_system */ 'Autodesk Translation Framework v15.8.0.0',
/* authorisation */ '');

FILE_SCHEMA (('AUTOMOTIVE_DESIGN { 1 0 10303 214 3 1 1 }'));
ENDSEC;

DATA;
#10=MECHANICAL_DESIGN_GEOMETRIC_PRESENTATION_REPRESENTATION('',(#13),#1972);
#11=SHAPE_REPRESENTATION_RELATIONSHIP('SRR','None',#1979,#12);
#12=ADVANCED_BREP_SHAPE_REPRESENTATION('',(#14),#1971);
#13=STYLED_ITEM('',(#1988),#14);
#14=MANIFOLD_SOLID_BREP('body',#1216);
#15=LINE('',#1639,#158);
#16=LINE('',#1642,#159);
#17=LINE('',#1652,#160);
#18=LINE('',#1655,#161);
#19=LINE('',#1665,#162);
#20=LINE('',#1668,#163);
#21=LINE('',#1678,#164);
#22=LINE('',#1681,#165);
#23=LINE('',#1686,#166);
#24=LINE('',#1688,#167);
#25=LINE('',#1690,#168);
#26=LINE('',#1691,#169);
#27=LINE('',#1694,#170);
#28=LINE('',#1696,#171);
#29=LINE('',#1697,#172);
#30=LINE('',#1700,#173);
#31=LINE('',#1702,#174);
#32=LINE('',#1703,#175);
#33=LINE('',#1705,#176);
#34=LINE('',#1708,#177);
#35=LINE('',#1710,#178);
#36=LINE('',#1712,#179);
#37=LINE('',#1714,#180);
#38=LINE('',#1716,#181);
#39=LINE('',#1718,#182);
#40=LINE('',#1720,#183);
#41=LINE('',#1722,#184);
#42=LINE('',#1724,#185);
#43=LINE('',#1726,#186);
#44=LINE('',#1728,#187);
#45=LINE('',#1730,#188);
#46=LINE('',#1732,#189);
#47=LINE('',#1734,#190);
#48=LINE('',#1736,#191);
#49=LINE('',#1738,#192);
#50=LINE('',#1740,#193);
#51=LINE('',#1742,#194);
#52=LINE('',#1744,#195);
#53=LINE('',#1746,#196);
#54=LINE('',#1748,#197);
#55=LINE('',#1750,#198);
#56=LINE('',#1752,#199);
#57=LINE('',#1754,#200);
#58=LINE('',#1756,#201);
#59=LINE('',#1758,#202);
#60=LINE('',#1760,#203);
#61=LINE('',#1762,#204);
#62=LINE('',#1763,#205);
#63=LINE('',#1766,#206);
#64=LINE('',#1768,#207);
#65=LINE('',#1770,#208);
#66=LINE('',#1772,#209);
#67=LINE('',#1774,#210);
#68=LINE('',#1775,#211);
#69=LINE('',#1779,#212);
#70=LINE('',#1781,#213);
#71=LINE('',#1783,#214);
#72=LINE('',#1784,#215);
#73=LINE('',#1789,#216);
#74=LINE('',#1793,#217);
#75=LINE('',#1795,#218);
#76=LINE('',#1796,#219);
#77=LINE('',#1804,#220);
#78=LINE('',#1808,#221);
#79=LINE('',#1810,#222);
#80=LINE('',#1811,#223);
#81=LINE('',#1813,#224);
#82=LINE('',#1815,#225);
#83=LINE('',#1816,#226);
#84=LINE('',#1818,#227);
#85=LINE('',#1820,#228);
#86=LINE('',#1821,#229);
#87=LINE('',#1824,#230);
#88=LINE('',#1826,#231);
#89=LINE('',#1827,#232);
#90=LINE('',#1829,#233);
#91=LINE('',#1830,#234);
#92=LINE('',#1833,#235);
#93=LINE('',#1835,#236);
#94=LINE('',#1836,#237);
#95=LINE('',#1838,#238);
#96=LINE('',#1840,#239);
#97=LINE('',#1841,#240);
#98=LINE('',#1843,#241);
#99=LINE('',#1844,#242);
#100=LINE('',#1847,#243);
#101=LINE('',#1848,#244);
#102=LINE('',#1850,#245);
#103=LINE('',#1851,#246);
#104=LINE('',#1855,#247);
#105=LINE('',#1857,#248);
#106=LINE('',#1859,#249);
#107=LINE('',#1860,#250);
#108=LINE('',#1863,#251);
#109=LINE('',#1865,#252);
#110=LINE('',#1866,#253);
#111=LINE('',#1868,#254);
#112=LINE('',#1870,#255);
#113=LINE('',#1874,#256);
#114=LINE('',#1875,#257);
#115=LINE('',#1878,#258);
#116=LINE('',#1879,#259);
#117=LINE('',#1881,#260);
#118=LINE('',#1885,#261);
#119=LINE('',#1886,#262);
#120=LINE('',#1889,#263);
#121=LINE('',#1890,#264);
#122=LINE('',#1892,#265);
#123=LINE('',#1896,#266);
#124=LINE('',#1898,#267);
#125=LINE('',#1899,#268);
#126=LINE('',#1902,#269);
#127=LINE('',#1903,#270);
#128=LINE('',#1906,#271);
#129=LINE('',#1907,#272);
#130=LINE('',#1910,#273);
#131=LINE('',#1911,#274);
#132=LINE('',#1914,#275);
#133=LINE('',#1915,#276);
#134=LINE('',#1917,#277);
#135=LINE('',#1921,#278);
#136=LINE('',#1922,#279);
#137=LINE('',#1925,#280);
#138=LINE('',#1926,#281);
#139=LINE('',#1928,#282);
#140=LINE('',#1932,#283);
#141=LINE('',#1933,#284);
#142=LINE('',#1936,#285);
#143=LINE('',#1937,#286);
#144=LINE('',#1939,#287);
#145=LINE('',#1943,#288);
#146=LINE('',#1945,#289);
#147=LINE('',#1946,#290);
#148=LINE('',#1948,#291);
#149=LINE('',#1950,#292);
#150=LINE('',#1954,#293);
#151=LINE('',#1956,#294);
#152=LINE('',#1957,#295);
#153=LINE('',#1960,#296);
#154=LINE('',#1961,#297);
#155=LINE('',#1964,#298);
#156=LINE('',#1965,#299);
#157=LINE('',#1967,#300);
#158=VECTOR('',#1327,2.15);
#159=VECTOR('',#1330,1.25);
#160=VECTOR('',#1343,2.15);
#161=VECTOR('',#1346,1.25);
#162=VECTOR('',#1359,2.15);
#163=VECTOR('',#1362,1.25);
#164=VECTOR('',#1375,2.15);
#165=VECTOR('',#1378,1.25);
#166=VECTOR('',#1383,10.);
#167=VECTOR('',#1384,10.);
#168=VECTOR('',#1385,10.);
#169=VECTOR('',#1386,10.);
#170=VECTOR('',#1389,10.);
#171=VECTOR('',#1390,10.);
#172=VECTOR('',#1391,10.);
#173=VECTOR('',#1394,10.);
#174=VECTOR('',#1395,10.);
#175=VECTOR('',#1396,10.);
#176=VECTOR('',#1399,10.);
#177=VECTOR('',#1402,10.);
#178=VECTOR('',#1403,10.);
#179=VECTOR('',#1404,10.);
#180=VECTOR('',#1405,10.);
#181=VECTOR('',#1406,10.);
#182=VECTOR('',#1407,10.);
#183=VECTOR('',#1408,10.);
#184=VECTOR('',#1409,10.);
#185=VECTOR('',#1410,10.);
#186=VECTOR('',#1411,10.);
#187=VECTOR('',#1412,10.);
#188=VECTOR('',#1413,10.);
#189=VECTOR('',#1414,10.);
#190=VECTOR('',#1415,10.);
#191=VECTOR('',#1416,10.);
#192=VECTOR('',#1417,10.);
#193=VECTOR('',#1418,10.);
#194=VECTOR('',#1419,10.);
#195=VECTOR('',#1420,10.);
#196=VECTOR('',#1421,10.);
#197=VECTOR('',#1422,10.);
#198=VECTOR('',#1423,10.);
#199=VECTOR('',#1424,10.);
#200=VECTOR('',#1425,10.);
#201=VECTOR('',#1426,10.);
#202=VECTOR('',#1427,10.);
#203=VECTOR('',#1428,10.);
#204=VECTOR('',#1429,10.);
#205=VECTOR('',#1430,10.);
#206=VECTOR('',#1431,10.);
#207=VECTOR('',#1432,10.);
#208=VECTOR('',#1433,10.);
#209=VECTOR('',#1434,10.);
#210=VECTOR('',#1435,10.);
#211=VECTOR('',#1436,10.);
#212=VECTOR('',#1439,10.);
#213=VECTOR('',#1440,10.);
#214=VECTOR('',#1441,10.);
#215=VECTOR('',#1442,10.);
#216=VECTOR('',#1447,10.);
#217=VECTOR('',#1452,10.);
#218=VECTOR('',#1453,10.);
#219=VECTOR('',#1454,10.);
#220=VECTOR('',#1465,1.875);
#221=VECTOR('',#1470,10.);
#222=VECTOR('',#1471,10.);
#223=VECTOR('',#1472,10.);
#224=VECTOR('',#1473,10.);
#225=VECTOR('',#1474,10.);
#226=VECTOR('',#1475,10.);
#227=VECTOR('',#1476,10.);
#228=VECTOR('',#1477,10.);
#229=VECTOR('',#1478,10.);
#230=VECTOR('',#1481,10.);
#231=VECTOR('',#1482,10.);
#232=VECTOR('',#1483,10.);
#233=VECTOR('',#1484,10.);
#234=VECTOR('',#1485,10.);
#235=VECTOR('',#1488,10.);
#236=VECTOR('',#1489,10.);
#237=VECTOR('',#1490,10.);
#238=VECTOR('',#1491,10.);
#239=VECTOR('',#1492,10.);
#240=VECTOR('',#1493,10.);
#241=VECTOR('',#1494,10.);
#242=VECTOR('',#1495,10.);
#243=VECTOR('',#1498,10.);
#244=VECTOR('',#1499,10.);
#245=VECTOR('',#1500,10.);
#246=VECTOR('',#1501,10.);
#247=VECTOR('',#1504,10.);
#248=VECTOR('',#1505,10.);
#249=VECTOR('',#1506,10.);
#250=VECTOR('',#1507,10.);
#251=VECTOR('',#1510,10.);
#252=VECTOR('',#1511,10.);
#253=VECTOR('',#1512,10.);
#254=VECTOR('',#1515,10.);
#255=VECTOR('',#1518,10.);
#256=VECTOR('',#1523,10.);
#257=VECTOR('',#1524,10.);
#258=VECTOR('',#1527,10.);
#259=VECTOR('',#1528,10.);
#260=VECTOR('',#1531,10.);
#261=VECTOR('',#1536,10.);
#262=VECTOR('',#1537,10.);
#263=VECTOR('',#1540,10.);
#264=VECTOR('',#1541,10.);
#265=VECTOR('',#1544,10.);
#266=VECTOR('',#1549,10.);
#267=VECTOR('',#1550,10.);
#268=VECTOR('',#1551,10.);
#269=VECTOR('',#1554,10.);
#270=VECTOR('',#1555,10.);
#271=VECTOR('',#1558,10.);
#272=VECTOR('',#1559,10.);
#273=VECTOR('',#1562,10.);
#274=VECTOR('',#1563,10.);
#275=VECTOR('',#1566,10.);
#276=VECTOR('',#1567,10.);
#277=VECTOR('',#1570,10.);
#278=VECTOR('',#1575,10.);
#279=VECTOR('',#1576,10.);
#280=VECTOR('',#1579,10.);
#281=VECTOR('',#1580,10.);
#282=VECTOR('',#1583,10.);
#283=VECTOR('',#1588,10.);
#284=VECTOR('',#1589,10.);
#285=VECTOR('',#1592,10.);
#286=VECTOR('',#1593,10.);
#287=VECTOR('',#1596,10.);
#288=VECTOR('',#1601,10.);
#289=VECTOR('',#1602,10.);
#290=VECTOR('',#1603,10.);
#291=VECTOR('',#1606,10.);
#292=VECTOR('',#1609,10.);
#293=VECTOR('',#1614,10.);
#294=VECTOR('',#1615,10.);
#295=VECTOR('',#1616,10.);
#296=VECTOR('',#1619,10.);
#297=VECTOR('',#1620,10.);
#298=VECTOR('',#1623,10.);
#299=VECTOR('',#1624,10.);
#300=VECTOR('',#1627,10.);
#301=CYLINDRICAL_SURFACE('',#1233,2.15);
#302=CYLINDRICAL_SURFACE('',#1235,1.25);
#303=CYLINDRICAL_SURFACE('',#1240,2.15);
#304=CYLINDRICAL_SURFACE('',#1242,1.25);
#305=CYLINDRICAL_SURFACE('',#1247,2.15);
#306=CYLINDRICAL_SURFACE('',#1249,1.25);
#307=CYLINDRICAL_SURFACE('',#1254,2.15);
#308=CYLINDRICAL_SURFACE('',#1256,1.25);
#309=CYLINDRICAL_SURFACE('',#1264,1.8);
#310=CYLINDRICAL_SURFACE('',#1268,1.8);
#311=CYLINDRICAL_SURFACE('',#1271,1.875);
#312=FACE_BOUND('',#394,.T.);
#313=FACE_BOUND('',#398,.T.);
#314=FACE_BOUND('',#402,.T.);
#315=FACE_BOUND('',#406,.T.);
#316=FACE_BOUND('',#414,.T.);
#317=FACE_BOUND('',#422,.T.);
#318=FACE_BOUND('',#423,.T.);
#319=FACE_BOUND('',#427,.T.);
#320=FACE_BOUND('',#436,.T.);
#321=FACE_BOUND('',#441,.T.);
#322=FACE_BOUND('',#453,.T.);
#323=FACE_BOUND('',#458,.T.);
#324=FACE_BOUND('',#464,.T.);
#325=FACE_BOUND('',#465,.T.);
#326=FACE_BOUND('',#470,.T.);
#327=FACE_BOUND('',#471,.T.);
#328=FACE_BOUND('',#472,.T.);
#329=FACE_BOUND('',#473,.T.);
#330=FACE_OUTER_BOUND('',#393,.T.);
#331=FACE_OUTER_BOUND('',#395,.T.);
#332=FACE_OUTER_BOUND('',#396,.T.);
#333=FACE_OUTER_BOUND('',#397,.T.);
#334=FACE_OUTER_BOUND('',#399,.T.);
#335=FACE_OUTER_BOUND('',#400,.T.);
#336=FACE_OUTER_BOUND('',#401,.T.);
#337=FACE_OUTER_BOUND('',#403,.T.);
#338=FACE_OUTER_BOUND('',#404,.T.);
#339=FACE_OUTER_BOUND('',#405,.T.);
#340=FACE_OUTER_BOUND('',#407,.T.);
#341=FACE_OUTER_BOUND('',#408,.T.);
#342=FACE_OUTER_BOUND('',#409,.T.);
#343=FACE_OUTER_BOUND('',#410,.T.);
#344=FACE_OUTER_BOUND('',#411,.T.);
#345=FACE_OUTER_BOUND('',#412,.T.);
#346=FACE_OUTER_BOUND('',#413,.T.);
#347=FACE_OUTER_BOUND('',#415,.T.);
#348=FACE_OUTER_BOUND('',#416,.T.);
#349=FACE_OUTER_BOUND('',#417,.T.);
#350=FACE_OUTER_BOUND('',#418,.T.);
#351=FACE_OUTER_BOUND('',#419,.T.);
#352=FACE_OUTER_BOUND('',#420,.T.);
#353=FACE_OUTER_BOUND('',#421,.T.);
#354=FACE_OUTER_BOUND('',#424,.T.);
#355=FACE_OUTER_BOUND('',#425,.T.);
#356=FACE_OUTER_BOUND('',#426,.T.);
#357=FACE_OUTER_BOUND('',#428,.T.);
#358=FACE_OUTER_BOUND('',#429,.T.);
#359=FACE_OUTER_BOUND('',#430,.T.);
#360=FACE_OUTER_BOUND('',#431,.T.);
#361=FACE_OUTER_BOUND('',#432,.T.);
#362=FACE_OUTER_BOUND('',#433,.T.);
#363=FACE_OUTER_BOUND('',#434,.T.);
#364=FACE_OUTER_BOUND('',#435,.T.);
#365=FACE_OUTER_BOUND('',#437,.T.);
#366=FACE_OUTER_BOUND('',#438,.T.);
#367=FACE_OUTER_BOUND('',#439,.T.);
#368=FACE_OUTER_BOUND('',#440,.T.);
#369=FACE_OUTER_BOUND('',#442,.T.);
#370=FACE_OUTER_BOUND('',#443,.T.);
#371=FACE_OUTER_BOUND('',#444,.T.);
#372=FACE_OUTER_BOUND('',#445,.T.);
#373=FACE_OUTER_BOUND('',#446,.T.);
#374=FACE_OUTER_BOUND('',#447,.T.);
#375=FACE_OUTER_BOUND('',#448,.T.);
#376=FACE_OUTER_BOUND('',#449,.T.);
#377=FACE_OUTER_BOUND('',#450,.T.);
#378=FACE_OUTER_BOUND('',#451,.T.);
#379=FACE_OUTER_BOUND('',#452,.T.);
#380=FACE_OUTER_BOUND('',#454,.T.);
#381=FACE_OUTER_BOUND('',#455,.T.);
#382=FACE_OUTER_BOUND('',#456,.T.);
#383=FACE_OUTER_BOUND('',#457,.T.);
#384=FACE_OUTER_BOUND('',#459,.T.);
#385=FACE_OUTER_BOUND('',#460,.T.);
#386=FACE_OUTER_BOUND('',#461,.T.);
#387=FACE_OUTER_BOUND('',#462,.T.);
#388=FACE_OUTER_BOUND('',#463,.T.);
#389=FACE_OUTER_BOUND('',#466,.T.);
#390=FACE_OUTER_BOUND('',#467,.T.);
#391=FACE_OUTER_BOUND('',#468,.T.);
#392=FACE_OUTER_BOUND('',#469,.T.);
#393=EDGE_LOOP('',(#771));
#394=EDGE_LOOP('',(#772));
#395=EDGE_LOOP('',(#773,#774,#775,#776));
#396=EDGE_LOOP('',(#777,#778,#779,#780));
#397=EDGE_LOOP('',(#781));
#398=EDGE_LOOP('',(#782));
#399=EDGE_LOOP('',(#783,#784,#785,#786));
#400=EDGE_LOOP('',(#787,#788,#789,#790));
#401=EDGE_LOOP('',(#791));
#402=EDGE_LOOP('',(#792));
#403=EDGE_LOOP('',(#793,#794,#795,#796));
#404=EDGE_LOOP('',(#797,#798,#799,#800));
#405=EDGE_LOOP('',(#801));
#406=EDGE_LOOP('',(#802));
#407=EDGE_LOOP('',(#803,#804,#805,#806));
#408=EDGE_LOOP('',(#807,#808,#809,#810));
#409=EDGE_LOOP('',(#811,#812,#813,#814));
#410=EDGE_LOOP('',(#815,#816,#817,#818));
#411=EDGE_LOOP('',(#819,#820,#821,#822));
#412=EDGE_LOOP('',(#823,#824,#825,#826));
#413=EDGE_LOOP('',(#827,#828,#829,#830,#831,#832,#833,#834,#835,#836,#837,
#838,#839,#840,#841,#842,#843,#844,#845,#846,#847,#848,#849,#850,#851,#852,
#853,#854,#855,#856,#857,#858));
#414=EDGE_LOOP('',(#859,#860,#861,#862,#863,#864));
#415=EDGE_LOOP('',(#865,#866,#867,#868));
#416=EDGE_LOOP('',(#869,#870,#871,#872));
#417=EDGE_LOOP('',(#873,#874,#875,#876));
#418=EDGE_LOOP('',(#877,#878,#879,#880));
#419=EDGE_LOOP('',(#881,#882,#883,#884));
#420=EDGE_LOOP('',(#885,#886,#887,#888,#889,#890,#891,#892,#893,#894,#895,
#896));
#421=EDGE_LOOP('',(#897,#898,#899,#900,#901,#902,#903,#904,#905,#906,#907,
#908));
#422=EDGE_LOOP('',(#909,#910,#911,#912));
#423=EDGE_LOOP('',(#913));
#424=EDGE_LOOP('',(#914,#915,#916,#917,#918,#919,#920,#921,#922,#923,#924,
#925));
#425=EDGE_LOOP('',(#926,#927,#928,#929,#930,#931,#932,#933));
#426=EDGE_LOOP('',(#934,#935,#936,#937));
#427=EDGE_LOOP('',(#938,#939,#940,#941));
#428=EDGE_LOOP('',(#942,#943,#944,#945));
#429=EDGE_LOOP('',(#946,#947,#948,#949));
#430=EDGE_LOOP('',(#950,#951,#952,#953));
#431=EDGE_LOOP('',(#954,#955,#956,#957));
#432=EDGE_LOOP('',(#958,#959,#960,#961));
#433=EDGE_LOOP('',(#962,#963,#964,#965));
#434=EDGE_LOOP('',(#966,#967,#968,#969));
#435=EDGE_LOOP('',(#970,#971,#972,#973));
#436=EDGE_LOOP('',(#974));
#437=EDGE_LOOP('',(#975,#976,#977,#978));
#438=EDGE_LOOP('',(#979,#980,#981,#982));
#439=EDGE_LOOP('',(#983,#984,#985,#986));
#440=EDGE_LOOP('',(#987,#988,#989,#990));
#441=EDGE_LOOP('',(#991));
#442=EDGE_LOOP('',(#992,#993,#994,#995));
#443=EDGE_LOOP('',(#996,#997,#998,#999));
#444=EDGE_LOOP('',(#1000,#1001,#1002,#1003));
#445=EDGE_LOOP('',(#1004,#1005,#1006,#1007));
#446=EDGE_LOOP('',(#1008,#1009,#1010,#1011));
#447=EDGE_LOOP('',(#1012,#1013,#1014,#1015));
#448=EDGE_LOOP('',(#1016,#1017,#1018,#1019,#1020,#1021));
#449=EDGE_LOOP('',(#1022,#1023,#1024,#1025));
#450=EDGE_LOOP('',(#1026,#1027,#1028,#1029));
#451=EDGE_LOOP('',(#1030,#1031,#1032,#1033));
#452=EDGE_LOOP('',(#1034,#1035,#1036,#1037));
#453=EDGE_LOOP('',(#1038));
#454=EDGE_LOOP('',(#1039,#1040,#1041,#1042));
#455=EDGE_LOOP('',(#1043,#1044,#1045,#1046));
#456=EDGE_LOOP('',(#1047,#1048,#1049,#1050));
#457=EDGE_LOOP('',(#1051,#1052,#1053,#1054));
#458=EDGE_LOOP('',(#1055));
#459=EDGE_LOOP('',(#1056,#1057,#1058,#1059));
#460=EDGE_LOOP('',(#1060,#1061,#1062,#1063));
#461=EDGE_LOOP('',(#1064,#1065,#1066,#1067));
#462=EDGE_LOOP('',(#1068,#1069,#1070,#1071));
#463=EDGE_LOOP('',(#1072,#1073,#1074,#1075));
#464=EDGE_LOOP('',(#1076,#1077,#1078,#1079));
#465=EDGE_LOOP('',(#1080));
#466=EDGE_LOOP('',(#1081,#1082,#1083,#1084));
#467=EDGE_LOOP('',(#1085,#1086,#1087,#1088));
#468=EDGE_LOOP('',(#1089,#1090,#1091,#1092));
#469=EDGE_LOOP('',(#1093,#1094,#1095,#1096));
#470=EDGE_LOOP('',(#1097));
#471=EDGE_LOOP('',(#1098));
#472=EDGE_LOOP('',(#1099));
#473=EDGE_LOOP('',(#1100));
#474=CIRCLE('',#1231,2.15);
#475=CIRCLE('',#1232,1.25);
#476=CIRCLE('',#1234,2.15);
#477=CIRCLE('',#1236,1.25);
#478=CIRCLE('',#1238,2.15);
#479=CIRCLE('',#1239,1.25);
#480=CIRCLE('',#1241,2.15);
#481=CIRCLE('',#1243,1.25);
#482=CIRCLE('',#1245,2.15);
#483=CIRCLE('',#1246,1.25);
#484=CIRCLE('',#1248,2.15);
#485=CIRCLE('',#1250,1.25);
#486=CIRCLE('',#1252,2.15);
#487=CIRCLE('',#1253,1.25);
#488=CIRCLE('',#1255,2.15);
#489=CIRCLE('',#1257,1.25);
#490=CIRCLE('',#1265,1.8);
#491=CIRCLE('',#1266,1.8);
#492=CIRCLE('',#1269,1.8);
#493=CIRCLE('',#1270,1.8);
#494=CIRCLE('',#1272,1.875);
#495=CIRCLE('',#1273,1.875);
#496=VERTEX_POINT('',#1632);
#497=VERTEX_POINT('',#1634);
#498=VERTEX_POINT('',#1637);
#499=VERTEX_POINT('',#1641);
#500=VERTEX_POINT('',#1645);
#501=VERTEX_POINT('',#1647);
#502=VERTEX_POINT('',#1650);
#503=VERTEX_POINT('',#1654);
#504=VERTEX_POINT('',#1658);
#505=VERTEX_POINT('',#1660);
#506=VERTEX_POINT('',#1663);
#507=VERTEX_POINT('',#1667);
#508=VERTEX_POINT('',#1671);
#509=VERTEX_POINT('',#1673);
#510=VERTEX_POINT('',#1676);
#511=VERTEX_POINT('',#1680);
#512=VERTEX_POINT('',#1684);
#513=VERTEX_POINT('',#1685);
#514=VERTEX_POINT('',#1687);
#515=VERTEX_POINT('',#1689);
#516=VERTEX_POINT('',#1693);
#517=VERTEX_POINT('',#1695);
#518=VERTEX_POINT('',#1699);
#519=VERTEX_POINT('',#1701);
#520=VERTEX_POINT('',#1707);
#521=VERTEX_POINT('',#1709);
#522=VERTEX_POINT('',#1711);
#523=VERTEX_POINT('',#1713);
#524=VERTEX_POINT('',#1715);
#525=VERTEX_POINT('',#1717);
#526=VERTEX_POINT('',#1719);
#527=VERTEX_POINT('',#1721);
#528=VERTEX_POINT('',#1723);
#529=VERTEX_POINT('',#1725);
#530=VERTEX_POINT('',#1727);
#531=VERTEX_POINT('',#1729);
#532=VERTEX_POINT('',#1731);
#533=VERTEX_POINT('',#1733);
#534=VERTEX_POINT('',#1735);
#535=VERTEX_POINT('',#1737);
#536=VERTEX_POINT('',#1739);
#537=VERTEX_POINT('',#1741);
#538=VERTEX_POINT('',#1743);
#539=VERTEX_POINT('',#1745);
#540=VERTEX_POINT('',#1747);
#541=VERTEX_POINT('',#1749);
#542=VERTEX_POINT('',#1751);
#543=VERTEX_POINT('',#1753);
#544=VERTEX_POINT('',#1755);
#545=VERTEX_POINT('',#1757);
#546=VERTEX_POINT('',#1759);
#547=VERTEX_POINT('',#1761);
#548=VERTEX_POINT('',#1764);
#549=VERTEX_POINT('',#1765);
#550=VERTEX_POINT('',#1767);
#551=VERTEX_POINT('',#1769);
#552=VERTEX_POINT('',#1771);
#553=VERTEX_POINT('',#1773);
#554=VERTEX_POINT('',#1777);
#555=VERTEX_POINT('',#1778);
#556=VERTEX_POINT('',#1780);
#557=VERTEX_POINT('',#1782);
#558=VERTEX_POINT('',#1786);
#559=VERTEX_POINT('',#1788);
#560=VERTEX_POINT('',#1792);
#561=VERTEX_POINT('',#1794);
#562=VERTEX_POINT('',#1801);
#563=VERTEX_POINT('',#1803);
#564=VERTEX_POINT('',#1807);
#565=VERTEX_POINT('',#1809);
#566=VERTEX_POINT('',#1812);
#567=VERTEX_POINT('',#1814);
#568=VERTEX_POINT('',#1817);
#569=VERTEX_POINT('',#1819);
#570=VERTEX_POINT('',#1823);
#571=VERTEX_POINT('',#1825);
#572=VERTEX_POINT('',#1828);
#573=VERTEX_POINT('',#1832);
#574=VERTEX_POINT('',#1834);
#575=VERTEX_POINT('',#1837);
#576=VERTEX_POINT('',#1839);
#577=VERTEX_POINT('',#1842);
#578=VERTEX_POINT('',#1846);
#579=VERTEX_POINT('',#1849);
#580=VERTEX_POINT('',#1853);
#581=VERTEX_POINT('',#1854);
#582=VERTEX_POINT('',#1856);
#583=VERTEX_POINT('',#1858);
#584=VERTEX_POINT('',#1862);
#585=VERTEX_POINT('',#1864);
#586=VERTEX_POINT('',#1873);
#587=VERTEX_POINT('',#1877);
#588=VERTEX_POINT('',#1884);
#589=VERTEX_POINT('',#1888);
#590=VERTEX_POINT('',#1895);
#591=VERTEX_POINT('',#1897);
#592=VERTEX_POINT('',#1901);
#593=VERTEX_POINT('',#1905);
#594=VERTEX_POINT('',#1909);
#595=VERTEX_POINT('',#1913);
#596=VERTEX_POINT('',#1920);
#597=VERTEX_POINT('',#1924);
#598=VERTEX_POINT('',#1931);
#599=VERTEX_POINT('',#1935);
#600=VERTEX_POINT('',#1942);
#601=VERTEX_POINT('',#1944);
#602=VERTEX_POINT('',#1953);
#603=VERTEX_POINT('',#1955);
#604=VERTEX_POINT('',#1959);
#605=VERTEX_POINT('',#1963);
#606=EDGE_CURVE('',#496,#496,#474,.T.);
#607=EDGE_CURVE('',#497,#497,#475,.T.);
#608=EDGE_CURVE('',#498,#498,#476,.T.);
#609=EDGE_CURVE('',#498,#496,#15,.T.);
#610=EDGE_CURVE('',#497,#499,#16,.T.);
#611=EDGE_CURVE('',#499,#499,#477,.T.);
#612=EDGE_CURVE('',#500,#500,#478,.T.);
#613=EDGE_CURVE('',#501,#501,#479,.T.);
#614=EDGE_CURVE('',#502,#502,#480,.T.);
#615=EDGE_CURVE('',#502,#500,#17,.T.);
#616=EDGE_CURVE('',#501,#503,#18,.T.);
#617=EDGE_CURVE('',#503,#503,#481,.T.);
#618=EDGE_CURVE('',#504,#504,#482,.T.);
#619=EDGE_CURVE('',#505,#505,#483,.T.);
#620=EDGE_CURVE('',#506,#506,#484,.T.);
#621=EDGE_CURVE('',#506,#504,#19,.T.);
#622=EDGE_CURVE('',#505,#507,#20,.T.);
#623=EDGE_CURVE('',#507,#507,#485,.T.);
#624=EDGE_CURVE('',#508,#508,#486,.T.);
#625=EDGE_CURVE('',#509,#509,#487,.T.);
#626=EDGE_CURVE('',#510,#510,#488,.T.);
#627=EDGE_CURVE('',#510,#508,#21,.T.);
#628=EDGE_CURVE('',#509,#511,#22,.T.);
#629=EDGE_CURVE('',#511,#511,#489,.T.);
#630=EDGE_CURVE('',#512,#513,#23,.T.);
#631=EDGE_CURVE('',#512,#514,#24,.T.);
#632=EDGE_CURVE('',#514,#515,#25,.T.);
#633=EDGE_CURVE('',#513,#515,#26,.T.);
#634=EDGE_CURVE('',#516,#512,#27,.T.);
#635=EDGE_CURVE('',#516,#517,#28,.T.);
#636=EDGE_CURVE('',#517,#514,#29,.T.);
#637=EDGE_CURVE('',#518,#516,#30,.T.);
#638=EDGE_CURVE('',#518,#519,#31,.T.);
#639=EDGE_CURVE('',#519,#517,#32,.T.);
#640=EDGE_CURVE('',#515,#519,#33,.T.);
#641=EDGE_CURVE('',#513,#520,#34,.T.);
#642=EDGE_CURVE('',#520,#521,#35,.T.);
#643=EDGE_CURVE('',#521,#522,#36,.T.);
#644=EDGE_CURVE('',#522,#523,#37,.T.);
#645=EDGE_CURVE('',#523,#524,#38,.T.);
#646=EDGE_CURVE('',#524,#525,#39,.T.);
#647=EDGE_CURVE('',#525,#526,#40,.T.);
#648=EDGE_CURVE('',#526,#527,#41,.T.);
#649=EDGE_CURVE('',#527,#528,#42,.T.);
#650=EDGE_CURVE('',#528,#529,#43,.T.);
#651=EDGE_CURVE('',#529,#530,#44,.T.);
#652=EDGE_CURVE('',#530,#531,#45,.T.);
#653=EDGE_CURVE('',#531,#532,#46,.T.);
#654=EDGE_CURVE('',#532,#533,#47,.T.);
#655=EDGE_CURVE('',#533,#534,#48,.T.);
#656=EDGE_CURVE('',#534,#535,#49,.T.);
#657=EDGE_CURVE('',#535,#536,#50,.T.);
#658=EDGE_CURVE('',#536,#537,#51,.T.);
#659=EDGE_CURVE('',#537,#538,#52,.T.);
#660=EDGE_CURVE('',#538,#539,#53,.T.);
#661=EDGE_CURVE('',#539,#540,#54,.T.);
#662=EDGE_CURVE('',#540,#541,#55,.T.);
#663=EDGE_CURVE('',#541,#542,#56,.T.);
#664=EDGE_CURVE('',#542,#543,#57,.T.);
#665=EDGE_CURVE('',#543,#544,#58,.T.);
#666=EDGE_CURVE('',#544,#545,#59,.T.);
#667=EDGE_CURVE('',#545,#546,#60,.T.);
#668=EDGE_CURVE('',#546,#547,#61,.T.);
#669=EDGE_CURVE('',#547,#518,#62,.T.);
#670=EDGE_CURVE('',#548,#549,#63,.T.);
#671=EDGE_CURVE('',#549,#550,#64,.T.);
#672=EDGE_CURVE('',#550,#551,#65,.T.);
#673=EDGE_CURVE('',#551,#552,#66,.T.);
#674=EDGE_CURVE('',#552,#553,#67,.T.);
#675=EDGE_CURVE('',#553,#548,#68,.T.);
#676=EDGE_CURVE('',#554,#555,#69,.T.);
#677=EDGE_CURVE('',#554,#556,#70,.T.);
#678=EDGE_CURVE('',#557,#556,#71,.T.);
#679=EDGE_CURVE('',#555,#557,#72,.T.);
#680=EDGE_CURVE('',#558,#554,#490,.T.);
#681=EDGE_CURVE('',#558,#559,#73,.T.);
#682=EDGE_CURVE('',#556,#559,#491,.T.);
#683=EDGE_CURVE('',#560,#558,#74,.T.);
#684=EDGE_CURVE('',#560,#561,#75,.T.);
#685=EDGE_CURVE('',#559,#561,#76,.T.);
#686=EDGE_CURVE('',#555,#560,#492,.T.);
#687=EDGE_CURVE('',#561,#557,#493,.T.);
#688=EDGE_CURVE('',#562,#562,#494,.T.);
#689=EDGE_CURVE('',#562,#563,#77,.T.);
#690=EDGE_CURVE('',#563,#563,#495,.T.);
#691=EDGE_CURVE('',#528,#564,#78,.T.);
#692=EDGE_CURVE('',#565,#564,#79,.T.);
#693=EDGE_CURVE('',#525,#565,#80,.T.);
#694=EDGE_CURVE('',#524,#566,#81,.T.);
#695=EDGE_CURVE('',#567,#566,#82,.T.);
#696=EDGE_CURVE('',#533,#567,#83,.T.);
#697=EDGE_CURVE('',#532,#568,#84,.T.);
#698=EDGE_CURVE('',#569,#568,#85,.T.);
#699=EDGE_CURVE('',#529,#569,#86,.T.);
#700=EDGE_CURVE('',#523,#570,#87,.T.);
#701=EDGE_CURVE('',#571,#570,#88,.T.);
#702=EDGE_CURVE('',#520,#571,#89,.T.);
#703=EDGE_CURVE('',#547,#572,#90,.T.);
#704=EDGE_CURVE('',#566,#572,#91,.T.);
#705=EDGE_CURVE('',#546,#573,#92,.T.);
#706=EDGE_CURVE('',#574,#573,#93,.T.);
#707=EDGE_CURVE('',#543,#574,#94,.T.);
#708=EDGE_CURVE('',#542,#575,#95,.T.);
#709=EDGE_CURVE('',#576,#575,#96,.T.);
#710=EDGE_CURVE('',#539,#576,#97,.T.);
#711=EDGE_CURVE('',#538,#577,#98,.T.);
#712=EDGE_CURVE('',#572,#577,#99,.T.);
#713=EDGE_CURVE('',#534,#578,#100,.T.);
#714=EDGE_CURVE('',#577,#567,#101,.T.);
#715=EDGE_CURVE('',#537,#579,#102,.T.);
#716=EDGE_CURVE('',#578,#579,#103,.T.);
#717=EDGE_CURVE('',#580,#581,#104,.T.);
#718=EDGE_CURVE('',#581,#582,#105,.T.);
#719=EDGE_CURVE('',#582,#583,#106,.T.);
#720=EDGE_CURVE('',#583,#580,#107,.T.);
#721=EDGE_CURVE('',#521,#584,#108,.T.);
#722=EDGE_CURVE('',#585,#584,#109,.T.);
#723=EDGE_CURVE('',#522,#585,#110,.T.);
#724=EDGE_CURVE('',#570,#585,#111,.T.);
#725=EDGE_CURVE('',#584,#571,#112,.T.);
#726=EDGE_CURVE('',#586,#574,#113,.T.);
#727=EDGE_CURVE('',#544,#586,#114,.T.);
#728=EDGE_CURVE('',#587,#586,#115,.T.);
#729=EDGE_CURVE('',#545,#587,#116,.T.);
#730=EDGE_CURVE('',#573,#587,#117,.T.);
#731=EDGE_CURVE('',#588,#569,#118,.T.);
#732=EDGE_CURVE('',#530,#588,#119,.T.);
#733=EDGE_CURVE('',#589,#588,#120,.T.);
#734=EDGE_CURVE('',#531,#589,#121,.T.);
#735=EDGE_CURVE('',#568,#589,#122,.T.);
#736=EDGE_CURVE('',#548,#590,#123,.T.);
#737=EDGE_CURVE('',#591,#590,#124,.T.);
#738=EDGE_CURVE('',#549,#591,#125,.T.);
#739=EDGE_CURVE('',#592,#591,#126,.T.);
#740=EDGE_CURVE('',#550,#592,#127,.T.);
#741=EDGE_CURVE('',#593,#592,#128,.T.);
#742=EDGE_CURVE('',#551,#593,#129,.T.);
#743=EDGE_CURVE('',#594,#593,#130,.T.);
#744=EDGE_CURVE('',#552,#594,#131,.T.);
#745=EDGE_CURVE('',#595,#594,#132,.T.);
#746=EDGE_CURVE('',#553,#595,#133,.T.);
#747=EDGE_CURVE('',#590,#595,#134,.T.);
#748=EDGE_CURVE('',#596,#576,#135,.T.);
#749=EDGE_CURVE('',#540,#596,#136,.T.);
#750=EDGE_CURVE('',#597,#596,#137,.T.);
#751=EDGE_CURVE('',#541,#597,#138,.T.);
#752=EDGE_CURVE('',#575,#597,#139,.T.);
#753=EDGE_CURVE('',#598,#565,#140,.T.);
#754=EDGE_CURVE('',#526,#598,#141,.T.);
#755=EDGE_CURVE('',#599,#598,#142,.T.);
#756=EDGE_CURVE('',#527,#599,#143,.T.);
#757=EDGE_CURVE('',#564,#599,#144,.T.);
#758=EDGE_CURVE('',#535,#600,#145,.T.);
#759=EDGE_CURVE('',#601,#600,#146,.T.);
#760=EDGE_CURVE('',#536,#601,#147,.T.);
#761=EDGE_CURVE('',#579,#601,#148,.T.);
#762=EDGE_CURVE('',#600,#578,#149,.T.);
#763=EDGE_CURVE('',#602,#581,#150,.T.);
#764=EDGE_CURVE('',#603,#602,#151,.T.);
#765=EDGE_CURVE('',#603,#582,#152,.T.);
#766=EDGE_CURVE('',#604,#603,#153,.T.);
#767=EDGE_CURVE('',#604,#583,#154,.T.);
#768=EDGE_CURVE('',#605,#604,#155,.T.);
#769=EDGE_CURVE('',#605,#580,#156,.T.);
#770=EDGE_CURVE('',#602,#605,#157,.T.);
#771=ORIENTED_EDGE('',*,*,#606,.F.);
#772=ORIENTED_EDGE('',*,*,#607,.T.);
#773=ORIENTED_EDGE('',*,*,#608,.F.);
#774=ORIENTED_EDGE('',*,*,#609,.T.);
#775=ORIENTED_EDGE('',*,*,#606,.T.);
#776=ORIENTED_EDGE('',*,*,#609,.F.);
#777=ORIENTED_EDGE('',*,*,#607,.F.);
#778=ORIENTED_EDGE('',*,*,#610,.T.);
#779=ORIENTED_EDGE('',*,*,#611,.F.);
#780=ORIENTED_EDGE('',*,*,#610,.F.);
#781=ORIENTED_EDGE('',*,*,#612,.F.);
#782=ORIENTED_EDGE('',*,*,#613,.T.);
#783=ORIENTED_EDGE('',*,*,#614,.F.);
#784=ORIENTED_EDGE('',*,*,#615,.T.);
#785=ORIENTED_EDGE('',*,*,#612,.T.);
#786=ORIENTED_EDGE('',*,*,#615,.F.);
#787=ORIENTED_EDGE('',*,*,#613,.F.);
#788=ORIENTED_EDGE('',*,*,#616,.T.);
#789=ORIENTED_EDGE('',*,*,#617,.F.);
#790=ORIENTED_EDGE('',*,*,#616,.F.);
#791=ORIENTED_EDGE('',*,*,#618,.F.);
#792=ORIENTED_EDGE('',*,*,#619,.T.);
#793=ORIENTED_EDGE('',*,*,#620,.F.);
#794=ORIENTED_EDGE('',*,*,#621,.T.);
#795=ORIENTED_EDGE('',*,*,#618,.T.);
#796=ORIENTED_EDGE('',*,*,#621,.F.);
#797=ORIENTED_EDGE('',*,*,#619,.F.);
#798=ORIENTED_EDGE('',*,*,#622,.T.);
#799=ORIENTED_EDGE('',*,*,#623,.F.);
#800=ORIENTED_EDGE('',*,*,#622,.F.);
#801=ORIENTED_EDGE('',*,*,#624,.F.);
#802=ORIENTED_EDGE('',*,*,#625,.T.);
#803=ORIENTED_EDGE('',*,*,#626,.F.);
#804=ORIENTED_EDGE('',*,*,#627,.T.);
#805=ORIENTED_EDGE('',*,*,#624,.T.);
#806=ORIENTED_EDGE('',*,*,#627,.F.);
#807=ORIENTED_EDGE('',*,*,#625,.F.);
#808=ORIENTED_EDGE('',*,*,#628,.T.);
#809=ORIENTED_EDGE('',*,*,#629,.F.);
#810=ORIENTED_EDGE('',*,*,#628,.F.);
#811=ORIENTED_EDGE('',*,*,#630,.F.);
#812=ORIENTED_EDGE('',*,*,#631,.T.);
#813=ORIENTED_EDGE('',*,*,#632,.T.);
#814=ORIENTED_EDGE('',*,*,#633,.F.);
#815=ORIENTED_EDGE('',*,*,#634,.F.);
#816=ORIENTED_EDGE('',*,*,#635,.T.);
#817=ORIENTED_EDGE('',*,*,#636,.T.);
#818=ORIENTED_EDGE('',*,*,#631,.F.);
#819=ORIENTED_EDGE('',*,*,#637,.F.);
#820=ORIENTED_EDGE('',*,*,#638,.T.);
#821=ORIENTED_EDGE('',*,*,#639,.T.);
#822=ORIENTED_EDGE('',*,*,#635,.F.);
#823=ORIENTED_EDGE('',*,*,#639,.F.);
#824=ORIENTED_EDGE('',*,*,#640,.F.);
#825=ORIENTED_EDGE('',*,*,#632,.F.);
#826=ORIENTED_EDGE('',*,*,#636,.F.);
#827=ORIENTED_EDGE('',*,*,#637,.T.);
#828=ORIENTED_EDGE('',*,*,#634,.T.);
#829=ORIENTED_EDGE('',*,*,#630,.T.);
#830=ORIENTED_EDGE('',*,*,#641,.T.);
#831=ORIENTED_EDGE('',*,*,#642,.T.);
#832=ORIENTED_EDGE('',*,*,#643,.T.);
#833=ORIENTED_EDGE('',*,*,#644,.T.);
#834=ORIENTED_EDGE('',*,*,#645,.T.);
#835=ORIENTED_EDGE('',*,*,#646,.T.);
#836=ORIENTED_EDGE('',*,*,#647,.T.);
#837=ORIENTED_EDGE('',*,*,#648,.T.);
#838=ORIENTED_EDGE('',*,*,#649,.T.);
#839=ORIENTED_EDGE('',*,*,#650,.T.);
#840=ORIENTED_EDGE('',*,*,#651,.T.);
#841=ORIENTED_EDGE('',*,*,#652,.T.);
#842=ORIENTED_EDGE('',*,*,#653,.T.);
#843=ORIENTED_EDGE('',*,*,#654,.T.);
#844=ORIENTED_EDGE('',*,*,#655,.T.);
#845=ORIENTED_EDGE('',*,*,#656,.T.);
#846=ORIENTED_EDGE('',*,*,#657,.T.);
#847=ORIENTED_EDGE('',*,*,#658,.T.);
#848=ORIENTED_EDGE('',*,*,#659,.T.);
#849=ORIENTED_EDGE('',*,*,#660,.T.);
#850=ORIENTED_EDGE('',*,*,#661,.T.);
#851=ORIENTED_EDGE('',*,*,#662,.T.);
#852=ORIENTED_EDGE('',*,*,#663,.T.);
#853=ORIENTED_EDGE('',*,*,#664,.T.);
#854=ORIENTED_EDGE('',*,*,#665,.T.);
#855=ORIENTED_EDGE('',*,*,#666,.T.);
#856=ORIENTED_EDGE('',*,*,#667,.T.);
#857=ORIENTED_EDGE('',*,*,#668,.T.);
#858=ORIENTED_EDGE('',*,*,#669,.T.);
#859=ORIENTED_EDGE('',*,*,#670,.T.);
#860=ORIENTED_EDGE('',*,*,#671,.T.);
#861=ORIENTED_EDGE('',*,*,#672,.T.);
#862=ORIENTED_EDGE('',*,*,#673,.T.);
#863=ORIENTED_EDGE('',*,*,#674,.T.);
#864=ORIENTED_EDGE('',*,*,#675,.T.);
#865=ORIENTED_EDGE('',*,*,#676,.F.);
#866=ORIENTED_EDGE('',*,*,#677,.T.);
#867=ORIENTED_EDGE('',*,*,#678,.F.);
#868=ORIENTED_EDGE('',*,*,#679,.F.);
#869=ORIENTED_EDGE('',*,*,#680,.F.);
#870=ORIENTED_EDGE('',*,*,#681,.T.);
#871=ORIENTED_EDGE('',*,*,#682,.F.);
#872=ORIENTED_EDGE('',*,*,#677,.F.);
#873=ORIENTED_EDGE('',*,*,#683,.F.);
#874=ORIENTED_EDGE('',*,*,#684,.T.);
#875=ORIENTED_EDGE('',*,*,#685,.F.);
#876=ORIENTED_EDGE('',*,*,#681,.F.);
#877=ORIENTED_EDGE('',*,*,#686,.F.);
#878=ORIENTED_EDGE('',*,*,#679,.T.);
#879=ORIENTED_EDGE('',*,*,#687,.F.);
#880=ORIENTED_EDGE('',*,*,#684,.F.);
#881=ORIENTED_EDGE('',*,*,#688,.F.);
#882=ORIENTED_EDGE('',*,*,#689,.T.);
#883=ORIENTED_EDGE('',*,*,#690,.F.);
#884=ORIENTED_EDGE('',*,*,#689,.F.);
#885=ORIENTED_EDGE('',*,*,#691,.T.);
#886=ORIENTED_EDGE('',*,*,#692,.F.);
#887=ORIENTED_EDGE('',*,*,#693,.F.);
#888=ORIENTED_EDGE('',*,*,#646,.F.);
#889=ORIENTED_EDGE('',*,*,#694,.T.);
#890=ORIENTED_EDGE('',*,*,#695,.F.);
#891=ORIENTED_EDGE('',*,*,#696,.F.);
#892=ORIENTED_EDGE('',*,*,#654,.F.);
#893=ORIENTED_EDGE('',*,*,#697,.T.);
#894=ORIENTED_EDGE('',*,*,#698,.F.);
#895=ORIENTED_EDGE('',*,*,#699,.F.);
#896=ORIENTED_EDGE('',*,*,#650,.F.);
#897=ORIENTED_EDGE('',*,*,#700,.T.);
#898=ORIENTED_EDGE('',*,*,#701,.F.);
#899=ORIENTED_EDGE('',*,*,#702,.F.);
#900=ORIENTED_EDGE('',*,*,#641,.F.);
#901=ORIENTED_EDGE('',*,*,#633,.T.);
#902=ORIENTED_EDGE('',*,*,#640,.T.);
#903=ORIENTED_EDGE('',*,*,#638,.F.);
#904=ORIENTED_EDGE('',*,*,#669,.F.);
#905=ORIENTED_EDGE('',*,*,#703,.T.);
#906=ORIENTED_EDGE('',*,*,#704,.F.);
#907=ORIENTED_EDGE('',*,*,#694,.F.);
#908=ORIENTED_EDGE('',*,*,#645,.F.);
#909=ORIENTED_EDGE('',*,*,#676,.T.);
#910=ORIENTED_EDGE('',*,*,#686,.T.);
#911=ORIENTED_EDGE('',*,*,#683,.T.);
#912=ORIENTED_EDGE('',*,*,#680,.T.);
#913=ORIENTED_EDGE('',*,*,#688,.T.);
#914=ORIENTED_EDGE('',*,*,#705,.T.);
#915=ORIENTED_EDGE('',*,*,#706,.F.);
#916=ORIENTED_EDGE('',*,*,#707,.F.);
#917=ORIENTED_EDGE('',*,*,#664,.F.);
#918=ORIENTED_EDGE('',*,*,#708,.T.);
#919=ORIENTED_EDGE('',*,*,#709,.F.);
#920=ORIENTED_EDGE('',*,*,#710,.F.);
#921=ORIENTED_EDGE('',*,*,#660,.F.);
#922=ORIENTED_EDGE('',*,*,#711,.T.);
#923=ORIENTED_EDGE('',*,*,#712,.F.);
#924=ORIENTED_EDGE('',*,*,#703,.F.);
#925=ORIENTED_EDGE('',*,*,#668,.F.);
#926=ORIENTED_EDGE('',*,*,#713,.F.);
#927=ORIENTED_EDGE('',*,*,#655,.F.);
#928=ORIENTED_EDGE('',*,*,#696,.T.);
#929=ORIENTED_EDGE('',*,*,#714,.F.);
#930=ORIENTED_EDGE('',*,*,#711,.F.);
#931=ORIENTED_EDGE('',*,*,#659,.F.);
#932=ORIENTED_EDGE('',*,*,#715,.T.);
#933=ORIENTED_EDGE('',*,*,#716,.F.);
#934=ORIENTED_EDGE('',*,*,#717,.T.);
#935=ORIENTED_EDGE('',*,*,#718,.T.);
#936=ORIENTED_EDGE('',*,*,#719,.T.);
#937=ORIENTED_EDGE('',*,*,#720,.T.);
#938=ORIENTED_EDGE('',*,*,#712,.T.);
#939=ORIENTED_EDGE('',*,*,#714,.T.);
#940=ORIENTED_EDGE('',*,*,#695,.T.);
#941=ORIENTED_EDGE('',*,*,#704,.T.);
#942=ORIENTED_EDGE('',*,*,#643,.F.);
#943=ORIENTED_EDGE('',*,*,#721,.T.);
#944=ORIENTED_EDGE('',*,*,#722,.F.);
#945=ORIENTED_EDGE('',*,*,#723,.F.);
#946=ORIENTED_EDGE('',*,*,#644,.F.);
#947=ORIENTED_EDGE('',*,*,#723,.T.);
#948=ORIENTED_EDGE('',*,*,#724,.F.);
#949=ORIENTED_EDGE('',*,*,#700,.F.);
#950=ORIENTED_EDGE('',*,*,#642,.F.);
#951=ORIENTED_EDGE('',*,*,#702,.T.);
#952=ORIENTED_EDGE('',*,*,#725,.F.);
#953=ORIENTED_EDGE('',*,*,#721,.F.);
#954=ORIENTED_EDGE('',*,*,#725,.T.);
#955=ORIENTED_EDGE('',*,*,#701,.T.);
#956=ORIENTED_EDGE('',*,*,#724,.T.);
#957=ORIENTED_EDGE('',*,*,#722,.T.);
#958=ORIENTED_EDGE('',*,*,#665,.F.);
#959=ORIENTED_EDGE('',*,*,#707,.T.);
#960=ORIENTED_EDGE('',*,*,#726,.F.);
#961=ORIENTED_EDGE('',*,*,#727,.F.);
#962=ORIENTED_EDGE('',*,*,#666,.F.);
#963=ORIENTED_EDGE('',*,*,#727,.T.);
#964=ORIENTED_EDGE('',*,*,#728,.F.);
#965=ORIENTED_EDGE('',*,*,#729,.F.);
#966=ORIENTED_EDGE('',*,*,#667,.F.);
#967=ORIENTED_EDGE('',*,*,#729,.T.);
#968=ORIENTED_EDGE('',*,*,#730,.F.);
#969=ORIENTED_EDGE('',*,*,#705,.F.);
#970=ORIENTED_EDGE('',*,*,#706,.T.);
#971=ORIENTED_EDGE('',*,*,#730,.T.);
#972=ORIENTED_EDGE('',*,*,#728,.T.);
#973=ORIENTED_EDGE('',*,*,#726,.T.);
#974=ORIENTED_EDGE('',*,*,#617,.T.);
#975=ORIENTED_EDGE('',*,*,#651,.F.);
#976=ORIENTED_EDGE('',*,*,#699,.T.);
#977=ORIENTED_EDGE('',*,*,#731,.F.);
#978=ORIENTED_EDGE('',*,*,#732,.F.);
#979=ORIENTED_EDGE('',*,*,#652,.F.);
#980=ORIENTED_EDGE('',*,*,#732,.T.);
#981=ORIENTED_EDGE('',*,*,#733,.F.);
#982=ORIENTED_EDGE('',*,*,#734,.F.);
#983=ORIENTED_EDGE('',*,*,#653,.F.);
#984=ORIENTED_EDGE('',*,*,#734,.T.);
#985=ORIENTED_EDGE('',*,*,#735,.F.);
#986=ORIENTED_EDGE('',*,*,#697,.F.);
#987=ORIENTED_EDGE('',*,*,#698,.T.);
#988=ORIENTED_EDGE('',*,*,#735,.T.);
#989=ORIENTED_EDGE('',*,*,#733,.T.);
#990=ORIENTED_EDGE('',*,*,#731,.T.);
#991=ORIENTED_EDGE('',*,*,#611,.T.);
#992=ORIENTED_EDGE('',*,*,#670,.F.);
#993=ORIENTED_EDGE('',*,*,#736,.T.);
#994=ORIENTED_EDGE('',*,*,#737,.F.);
#995=ORIENTED_EDGE('',*,*,#738,.F.);
#996=ORIENTED_EDGE('',*,*,#671,.F.);
#997=ORIENTED_EDGE('',*,*,#738,.T.);
#998=ORIENTED_EDGE('',*,*,#739,.F.);
#999=ORIENTED_EDGE('',*,*,#740,.F.);
#1000=ORIENTED_EDGE('',*,*,#672,.F.);
#1001=ORIENTED_EDGE('',*,*,#740,.T.);
#1002=ORIENTED_EDGE('',*,*,#741,.F.);
#1003=ORIENTED_EDGE('',*,*,#742,.F.);
#1004=ORIENTED_EDGE('',*,*,#673,.F.);
#1005=ORIENTED_EDGE('',*,*,#742,.T.);
#1006=ORIENTED_EDGE('',*,*,#743,.F.);
#1007=ORIENTED_EDGE('',*,*,#744,.F.);
#1008=ORIENTED_EDGE('',*,*,#674,.F.);
#1009=ORIENTED_EDGE('',*,*,#744,.T.);
#1010=ORIENTED_EDGE('',*,*,#745,.F.);
#1011=ORIENTED_EDGE('',*,*,#746,.F.);
#1012=ORIENTED_EDGE('',*,*,#675,.F.);
#1013=ORIENTED_EDGE('',*,*,#746,.T.);
#1014=ORIENTED_EDGE('',*,*,#747,.F.);
#1015=ORIENTED_EDGE('',*,*,#736,.F.);
#1016=ORIENTED_EDGE('',*,*,#747,.T.);
#1017=ORIENTED_EDGE('',*,*,#745,.T.);
#1018=ORIENTED_EDGE('',*,*,#743,.T.);
#1019=ORIENTED_EDGE('',*,*,#741,.T.);
#1020=ORIENTED_EDGE('',*,*,#739,.T.);
#1021=ORIENTED_EDGE('',*,*,#737,.T.);
#1022=ORIENTED_EDGE('',*,*,#661,.F.);
#1023=ORIENTED_EDGE('',*,*,#710,.T.);
#1024=ORIENTED_EDGE('',*,*,#748,.F.);
#1025=ORIENTED_EDGE('',*,*,#749,.F.);
#1026=ORIENTED_EDGE('',*,*,#662,.F.);
#1027=ORIENTED_EDGE('',*,*,#749,.T.);
#1028=ORIENTED_EDGE('',*,*,#750,.F.);
#1029=ORIENTED_EDGE('',*,*,#751,.F.);
#1030=ORIENTED_EDGE('',*,*,#663,.F.);
#1031=ORIENTED_EDGE('',*,*,#751,.T.);
#1032=ORIENTED_EDGE('',*,*,#752,.F.);
#1033=ORIENTED_EDGE('',*,*,#708,.F.);
#1034=ORIENTED_EDGE('',*,*,#709,.T.);
#1035=ORIENTED_EDGE('',*,*,#752,.T.);
#1036=ORIENTED_EDGE('',*,*,#750,.T.);
#1037=ORIENTED_EDGE('',*,*,#748,.T.);
#1038=ORIENTED_EDGE('',*,*,#623,.T.);
#1039=ORIENTED_EDGE('',*,*,#647,.F.);
#1040=ORIENTED_EDGE('',*,*,#693,.T.);
#1041=ORIENTED_EDGE('',*,*,#753,.F.);
#1042=ORIENTED_EDGE('',*,*,#754,.F.);
#1043=ORIENTED_EDGE('',*,*,#648,.F.);
#1044=ORIENTED_EDGE('',*,*,#754,.T.);
#1045=ORIENTED_EDGE('',*,*,#755,.F.);
#1046=ORIENTED_EDGE('',*,*,#756,.F.);
#1047=ORIENTED_EDGE('',*,*,#649,.F.);
#1048=ORIENTED_EDGE('',*,*,#756,.T.);
#1049=ORIENTED_EDGE('',*,*,#757,.F.);
#1050=ORIENTED_EDGE('',*,*,#691,.F.);
#1051=ORIENTED_EDGE('',*,*,#692,.T.);
#1052=ORIENTED_EDGE('',*,*,#757,.T.);
#1053=ORIENTED_EDGE('',*,*,#755,.T.);
#1054=ORIENTED_EDGE('',*,*,#753,.T.);
#1055=ORIENTED_EDGE('',*,*,#629,.T.);
#1056=ORIENTED_EDGE('',*,*,#657,.F.);
#1057=ORIENTED_EDGE('',*,*,#758,.T.);
#1058=ORIENTED_EDGE('',*,*,#759,.F.);
#1059=ORIENTED_EDGE('',*,*,#760,.F.);
#1060=ORIENTED_EDGE('',*,*,#658,.F.);
#1061=ORIENTED_EDGE('',*,*,#760,.T.);
#1062=ORIENTED_EDGE('',*,*,#761,.F.);
#1063=ORIENTED_EDGE('',*,*,#715,.F.);
#1064=ORIENTED_EDGE('',*,*,#656,.F.);
#1065=ORIENTED_EDGE('',*,*,#713,.T.);
#1066=ORIENTED_EDGE('',*,*,#762,.F.);
#1067=ORIENTED_EDGE('',*,*,#758,.F.);
#1068=ORIENTED_EDGE('',*,*,#762,.T.);
#1069=ORIENTED_EDGE('',*,*,#716,.T.);
#1070=ORIENTED_EDGE('',*,*,#761,.T.);
#1071=ORIENTED_EDGE('',*,*,#759,.T.);
#1072=ORIENTED_EDGE('',*,*,#763,.F.);
#1073=ORIENTED_EDGE('',*,*,#764,.F.);
#1074=ORIENTED_EDGE('',*,*,#765,.T.);
#1075=ORIENTED_EDGE('',*,*,#718,.F.);
#1076=ORIENTED_EDGE('',*,*,#678,.T.);
#1077=ORIENTED_EDGE('',*,*,#682,.T.);
#1078=ORIENTED_EDGE('',*,*,#685,.T.);
#1079=ORIENTED_EDGE('',*,*,#687,.T.);
#1080=ORIENTED_EDGE('',*,*,#690,.T.);
#1081=ORIENTED_EDGE('',*,*,#765,.F.);
#1082=ORIENTED_EDGE('',*,*,#766,.F.);
#1083=ORIENTED_EDGE('',*,*,#767,.T.);
#1084=ORIENTED_EDGE('',*,*,#719,.F.);
#1085=ORIENTED_EDGE('',*,*,#767,.F.);
#1086=ORIENTED_EDGE('',*,*,#768,.F.);
#1087=ORIENTED_EDGE('',*,*,#769,.T.);
#1088=ORIENTED_EDGE('',*,*,#720,.F.);
#1089=ORIENTED_EDGE('',*,*,#769,.F.);
#1090=ORIENTED_EDGE('',*,*,#770,.F.);
#1091=ORIENTED_EDGE('',*,*,#763,.T.);
#1092=ORIENTED_EDGE('',*,*,#717,.F.);
#1093=ORIENTED_EDGE('',*,*,#770,.T.);
#1094=ORIENTED_EDGE('',*,*,#768,.T.);
#1095=ORIENTED_EDGE('',*,*,#766,.T.);
#1096=ORIENTED_EDGE('',*,*,#764,.T.);
#1097=ORIENTED_EDGE('',*,*,#608,.T.);
#1098=ORIENTED_EDGE('',*,*,#614,.T.);
#1099=ORIENTED_EDGE('',*,*,#620,.T.);
#1100=ORIENTED_EDGE('',*,*,#626,.T.);
#1101=PLANE('',#1230);
#1102=PLANE('',#1237);
#1103=PLANE('',#1244);
#1104=PLANE('',#1251);
#1105=PLANE('',#1258);
#1106=PLANE('',#1259);
#1107=PLANE('',#1260);
#1108=PLANE('',#1261);
#1109=PLANE('',#1262);
#1110=PLANE('',#1263);
#1111=PLANE('',#1267);
#1112=PLANE('',#1274);
#1113=PLANE('',#1275);
#1114=PLANE('',#1276);
#1115=PLANE('',#1277);
#1116=PLANE('',#1278);
#1117=PLANE('',#1279);
#1118=PLANE('',#1280);
#1119=PLANE('',#1281);
#1120=PLANE('',#1282);
#1121=PLANE('',#1283);
#1122=PLANE('',#1284);
#1123=PLANE('',#1285);
#1124=PLANE('',#1286);
#1125=PLANE('',#1287);
#1126=PLANE('',#1288);
#1127=PLANE('',#1289);
#1128=PLANE('',#1290);
#1129=PLANE('',#1291);
#1130=PLANE('',#1292);
#1131=PLANE('',#1293);
#1132=PLANE('',#1294);
#1133=PLANE('',#1295);
#1134=PLANE('',#1296);
#1135=PLANE('',#1297);
#1136=PLANE('',#1298);
#1137=PLANE('',#1299);
#1138=PLANE('',#1300);
#1139=PLANE('',#1301);
#1140=PLANE('',#1302);
#1141=PLANE('',#1303);
#1142=PLANE('',#1304);
#1143=PLANE('',#1305);
#1144=PLANE('',#1306);
#1145=PLANE('',#1307);
#1146=PLANE('',#1308);
#1147=PLANE('',#1309);
#1148=PLANE('',#1310);
#1149=PLANE('',#1311);
#1150=PLANE('',#1312);
#1151=PLANE('',#1313);
#1152=PLANE('',#1314);
#1153=ADVANCED_FACE('',(#330,#312),#1101,.F.);
#1154=ADVANCED_FACE('',(#331),#301,.F.);
#1155=ADVANCED_FACE('',(#332),#302,.F.);
#1156=ADVANCED_FACE('',(#333,#313),#1102,.F.);
#1157=ADVANCED_FACE('',(#334),#303,.F.);
#1158=ADVANCED_FACE('',(#335),#304,.F.);
#1159=ADVANCED_FACE('',(#336,#314),#1103,.F.);
#1160=ADVANCED_FACE('',(#337),#305,.F.);
#1161=ADVANCED_FACE('',(#338),#306,.F.);
#1162=ADVANCED_FACE('',(#339,#315),#1104,.F.);
#1163=ADVANCED_FACE('',(#340),#307,.F.);
#1164=ADVANCED_FACE('',(#341),#308,.F.);
#1165=ADVANCED_FACE('',(#342),#1105,.F.);
#1166=ADVANCED_FACE('',(#343),#1106,.F.);
#1167=ADVANCED_FACE('',(#344),#1107,.F.);
#1168=ADVANCED_FACE('',(#345),#1108,.F.);
#1169=ADVANCED_FACE('',(#346,#316),#1109,.T.);
#1170=ADVANCED_FACE('',(#347),#1110,.F.);
#1171=ADVANCED_FACE('',(#348),#309,.F.);
#1172=ADVANCED_FACE('',(#349),#1111,.F.);
#1173=ADVANCED_FACE('',(#350),#310,.F.);
#1174=ADVANCED_FACE('',(#351),#311,.F.);
#1175=ADVANCED_FACE('',(#352),#1112,.T.);
#1176=ADVANCED_FACE('',(#353,#317,#318),#1113,.T.);
#1177=ADVANCED_FACE('',(#354),#1114,.T.);
#1178=ADVANCED_FACE('',(#355),#1115,.T.);
#1179=ADVANCED_FACE('',(#356,#319),#1116,.T.);
#1180=ADVANCED_FACE('',(#357),#1117,.T.);
#1181=ADVANCED_FACE('',(#358),#1118,.T.);
#1182=ADVANCED_FACE('',(#359),#1119,.T.);
#1183=ADVANCED_FACE('',(#360),#1120,.T.);
#1184=ADVANCED_FACE('',(#361),#1121,.T.);
#1185=ADVANCED_FACE('',(#362),#1122,.T.);
#1186=ADVANCED_FACE('',(#363),#1123,.T.);
#1187=ADVANCED_FACE('',(#364,#320),#1124,.T.);
#1188=ADVANCED_FACE('',(#365),#1125,.T.);
#1189=ADVANCED_FACE('',(#366),#1126,.T.);
#1190=ADVANCED_FACE('',(#367),#1127,.T.);
#1191=ADVANCED_FACE('',(#368,#321),#1128,.T.);
#1192=ADVANCED_FACE('',(#369),#1129,.T.);
#1193=ADVANCED_FACE('',(#370),#1130,.T.);
#1194=ADVANCED_FACE('',(#371),#1131,.T.);
#1195=ADVANCED_FACE('',(#372),#1132,.T.);
#1196=ADVANCED_FACE('',(#373),#1133,.T.);
#1197=ADVANCED_FACE('',(#374),#1134,.T.);
#1198=ADVANCED_FACE('',(#375),#1135,.T.);
#1199=ADVANCED_FACE('',(#376),#1136,.T.);
#1200=ADVANCED_FACE('',(#377),#1137,.T.);
#1201=ADVANCED_FACE('',(#378),#1138,.T.);
#1202=ADVANCED_FACE('',(#379,#322),#1139,.T.);
#1203=ADVANCED_FACE('',(#380),#1140,.T.);
#1204=ADVANCED_FACE('',(#381),#1141,.T.);
#1205=ADVANCED_FACE('',(#382),#1142,.T.);
#1206=ADVANCED_FACE('',(#383,#323),#1143,.T.);
#1207=ADVANCED_FACE('',(#384),#1144,.T.);
#1208=ADVANCED_FACE('',(#385),#1145,.T.);
#1209=ADVANCED_FACE('',(#386),#1146,.T.);
#1210=ADVANCED_FACE('',(#387),#1147,.T.);
#1211=ADVANCED_FACE('',(#388,#324,#325),#1148,.T.);
#1212=ADVANCED_FACE('',(#389),#1149,.T.);
#1213=ADVANCED_FACE('',(#390),#1150,.T.);
#1214=ADVANCED_FACE('',(#391),#1151,.T.);
#1215=ADVANCED_FACE('',(#392,#326,#327,#328,#329),#1152,.T.);
#1216=CLOSED_SHELL('',(#1153,#1154,#1155,#1156,#1157,#1158,#1159,#1160,
#1161,#1162,#1163,#1164,#1165,#1166,#1167,#1168,#1169,#1170,#1171,#1172,
#1173,#1174,#1175,#1176,#1177,#1178,#1179,#1180,#1181,#1182,#1183,#1184,
#1185,#1186,#1187,#1188,#1189,#1190,#1191,#1192,#1193,#1194,#1195,#1196,
#1197,#1198,#1199,#1200,#1201,#1202,#1203,#1204,#1205,#1206,#1207,#1208,
#1209,#1210,#1211,#1212,#1213,#1214,#1215));
#1217=DERIVED_UNIT_ELEMENT(#1219,1.);
#1218=DERIVED_UNIT_ELEMENT(#1974,-3.);
#1219=(
MASS_UNIT()
NAMED_UNIT(*)
SI_UNIT(.KILO.,.GRAM.)
);
#1220=DERIVED_UNIT((#1217,#1218));
#1221=MEASURE_REPRESENTATION_ITEM('density measure',
POSITIVE_RATIO_MEASURE(7850.),#1220);
#1222=PROPERTY_DEFINITION_REPRESENTATION(#1227,#1224);
#1223=PROPERTY_DEFINITION_REPRESENTATION(#1228,#1225);
#1224=REPRESENTATION('material name',(#1226),#1971);
#1225=REPRESENTATION('density',(#1221),#1971);
#1226=DESCRIPTIVE_REPRESENTATION_ITEM('Steel','Steel');
#1227=PROPERTY_DEFINITION('material property','material name',#1981);
#1228=PROPERTY_DEFINITION('material property','density of part',#1981);
#1229=AXIS2_PLACEMENT_3D('',#1630,#1315,#1316);
#1230=AXIS2_PLACEMENT_3D('',#1631,#1317,#1318);
#1231=AXIS2_PLACEMENT_3D('',#1633,#1319,#1320);
#1232=AXIS2_PLACEMENT_3D('',#1635,#1321,#1322);
#1233=AXIS2_PLACEMENT_3D('',#1636,#1323,#1324);
#1234=AXIS2_PLACEMENT_3D('',#1638,#1325,#1326);
#1235=AXIS2_PLACEMENT_3D('',#1640,#1328,#1329);
#1236=AXIS2_PLACEMENT_3D('',#1643,#1331,#1332);
#1237=AXIS2_PLACEMENT_3D('',#1644,#1333,#1334);
#1238=AXIS2_PLACEMENT_3D('',#1646,#1335,#1336);
#1239=AXIS2_PLACEMENT_3D('',#1648,#1337,#1338);
#1240=AXIS2_PLACEMENT_3D('',#1649,#1339,#1340);
#1241=AXIS2_PLACEMENT_3D('',#1651,#1341,#1342);
#1242=AXIS2_PLACEMENT_3D('',#1653,#1344,#1345);
#1243=AXIS2_PLACEMENT_3D('',#1656,#1347,#1348);
#1244=AXIS2_PLACEMENT_3D('',#1657,#1349,#1350);
#1245=AXIS2_PLACEMENT_3D('',#1659,#1351,#1352);
#1246=AXIS2_PLACEMENT_3D('',#1661,#1353,#1354);
#1247=AXIS2_PLACEMENT_3D('',#1662,#1355,#1356);
#1248=AXIS2_PLACEMENT_3D('',#1664,#1357,#1358);
#1249=AXIS2_PLACEMENT_3D('',#1666,#1360,#1361);
#1250=AXIS2_PLACEMENT_3D('',#1669,#1363,#1364);
#1251=AXIS2_PLACEMENT_3D('',#1670,#1365,#1366);
#1252=AXIS2_PLACEMENT_3D('',#1672,#1367,#1368);
#1253=AXIS2_PLACEMENT_3D('',#1674,#1369,#1370);
#1254=AXIS2_PLACEMENT_3D('',#1675,#1371,#1372);
#1255=AXIS2_PLACEMENT_3D('',#1677,#1373,#1374);
#1256=AXIS2_PLACEMENT_3D('',#1679,#1376,#1377);
#1257=AXIS2_PLACEMENT_3D('',#1682,#1379,#1380);
#1258=AXIS2_PLACEMENT_3D('',#1683,#1381,#1382);
#1259=AXIS2_PLACEMENT_3D('',#1692,#1387,#1388);
#1260=AXIS2_PLACEMENT_3D('',#1698,#1392,#1393);
#1261=AXIS2_PLACEMENT_3D('',#1704,#1397,#1398);
#1262=AXIS2_PLACEMENT_3D('',#1706,#1400,#1401);
#1263=AXIS2_PLACEMENT_3D('',#1776,#1437,#1438);
#1264=AXIS2_PLACEMENT_3D('',#1785,#1443,#1444);
#1265=AXIS2_PLACEMENT_3D('',#1787,#1445,#1446);
#1266=AXIS2_PLACEMENT_3D('',#1790,#1448,#1449);
#1267=AXIS2_PLACEMENT_3D('',#1791,#1450,#1451);
#1268=AXIS2_PLACEMENT_3D('',#1797,#1455,#1456);
#1269=AXIS2_PLACEMENT_3D('',#1798,#1457,#1458);
#1270=AXIS2_PLACEMENT_3D('',#1799,#1459,#1460);
#1271=AXIS2_PLACEMENT_3D('',#1800,#1461,#1462);
#1272=AXIS2_PLACEMENT_3D('',#1802,#1463,#1464);
#1273=AXIS2_PLACEMENT_3D('',#1805,#1466,#1467);
#1274=AXIS2_PLACEMENT_3D('',#1806,#1468,#1469);
#1275=AXIS2_PLACEMENT_3D('',#1822,#1479,#1480);
#1276=AXIS2_PLACEMENT_3D('',#1831,#1486,#1487);
#1277=AXIS2_PLACEMENT_3D('',#1845,#1496,#1497);
#1278=AXIS2_PLACEMENT_3D('',#1852,#1502,#1503);
#1279=AXIS2_PLACEMENT_3D('',#1861,#1508,#1509);
#1280=AXIS2_PLACEMENT_3D('',#1867,#1513,#1514);
#1281=AXIS2_PLACEMENT_3D('',#1869,#1516,#1517);
#1282=AXIS2_PLACEMENT_3D('',#1871,#1519,#1520);
#1283=AXIS2_PLACEMENT_3D('',#1872,#1521,#1522);
#1284=AXIS2_PLACEMENT_3D('',#1876,#1525,#1526);
#1285=AXIS2_PLACEMENT_3D('',#1880,#1529,#1530);
#1286=AXIS2_PLACEMENT_3D('',#1882,#1532,#1533);
#1287=AXIS2_PLACEMENT_3D('',#1883,#1534,#1535);
#1288=AXIS2_PLACEMENT_3D('',#1887,#1538,#1539);
#1289=AXIS2_PLACEMENT_3D('',#1891,#1542,#1543);
#1290=AXIS2_PLACEMENT_3D('',#1893,#1545,#1546);
#1291=AXIS2_PLACEMENT_3D('',#1894,#1547,#1548);
#1292=AXIS2_PLACEMENT_3D('',#1900,#1552,#1553);
#1293=AXIS2_PLACEMENT_3D('',#1904,#1556,#1557);
#1294=AXIS2_PLACEMENT_3D('',#1908,#1560,#1561);
#1295=AXIS2_PLACEMENT_3D('',#1912,#1564,#1565);
#1296=AXIS2_PLACEMENT_3D('',#1916,#1568,#1569);
#1297=AXIS2_PLACEMENT_3D('',#1918,#1571,#1572);
#1298=AXIS2_PLACEMENT_3D('',#1919,#1573,#1574);
#1299=AXIS2_PLACEMENT_3D('',#1923,#1577,#1578);
#1300=AXIS2_PLACEMENT_3D('',#1927,#1581,#1582);
#1301=AXIS2_PLACEMENT_3D('',#1929,#1584,#1585);
#1302=AXIS2_PLACEMENT_3D('',#1930,#1586,#1587);
#1303=AXIS2_PLACEMENT_3D('',#1934,#1590,#1591);
#1304=AXIS2_PLACEMENT_3D('',#1938,#1594,#1595);
#1305=AXIS2_PLACEMENT_3D('',#1940,#1597,#1598);
#1306=AXIS2_PLACEMENT_3D('',#1941,#1599,#1600);
#1307=AXIS2_PLACEMENT_3D('',#1947,#1604,#1605);
#1308=AXIS2_PLACEMENT_3D('',#1949,#1607,#1608);
#1309=AXIS2_PLACEMENT_3D('',#1951,#1610,#1611);
#1310=AXIS2_PLACEMENT_3D('',#1952,#1612,#1613);
#1311=AXIS2_PLACEMENT_3D('',#1958,#1617,#1618);
#1312=AXIS2_PLACEMENT_3D('',#1962,#1621,#1622);
#1313=AXIS2_PLACEMENT_3D('',#1966,#1625,#1626);
#1314=AXIS2_PLACEMENT_3D('',#1968,#1628,#1629);
#1315=DIRECTION('axis',(0.,0.,1.));
#1316=DIRECTION('refdir',(1.,0.,0.));
#1317=DIRECTION('center_axis',(0.,0.,1.));
#1318=DIRECTION('ref_axis',(-1.,0.,0.));
#1319=DIRECTION('center_axis',(0.,0.,1.));
#1320=DIRECTION('ref_axis',(-1.,0.,0.));
#1321=DIRECTION('center_axis',(0.,0.,1.));
#1322=DIRECTION('ref_axis',(-1.,0.,0.));
#1323=DIRECTION('center_axis',(0.,0.,1.));
#1324=DIRECTION('ref_axis',(-1.,0.,0.));
#1325=DIRECTION('center_axis',(0.,0.,1.));
#1326=DIRECTION('ref_axis',(-1.,0.,0.));
#1327=DIRECTION('',(0.,0.,1.));
#1328=DIRECTION('center_axis',(0.,0.,1.));
#1329=DIRECTION('ref_axis',(-1.,0.,0.));
#1330=DIRECTION('',(0.,0.,1.));
#1331=DIRECTION('center_axis',(0.,0.,-1.));
#1332=DIRECTION('ref_axis',(-1.,0.,0.));
#1333=DIRECTION('center_axis',(0.,0.,1.));
#1334=DIRECTION('ref_axis',(-1.,0.,0.));
#1335=DIRECTION('center_axis',(0.,0.,1.));
#1336=DIRECTION('ref_axis',(-1.,0.,0.));
#1337=DIRECTION('center_axis',(0.,0.,1.));
#1338=DIRECTION('ref_axis',(-1.,0.,0.));
#1339=DIRECTION('center_axis',(0.,0.,1.));
#1340=DIRECTION('ref_axis',(-1.,0.,0.));
#1341=DIRECTION('center_axis',(0.,0.,1.));
#1342=DIRECTION('ref_axis',(-1.,0.,0.));
#1343=DIRECTION('',(0.,0.,1.));
#1344=DIRECTION('center_axis',(0.,0.,1.));
#1345=DIRECTION('ref_axis',(-1.,0.,0.));
#1346=DIRECTION('',(0.,0.,1.));
#1347=DIRECTION('center_axis',(0.,0.,-1.));
#1348=DIRECTION('ref_axis',(-1.,0.,0.));
#1349=DIRECTION('center_axis',(0.,0.,1.));
#1350=DIRECTION('ref_axis',(-1.,0.,0.));
#1351=DIRECTION('center_axis',(0.,0.,1.));
#1352=DIRECTION('ref_axis',(-1.,0.,0.));
#1353=DIRECTION('center_axis',(0.,0.,1.));
#1354=DIRECTION('ref_axis',(-1.,0.,0.));
#1355=DIRECTION('center_axis',(0.,0.,1.));
#1356=DIRECTION('ref_axis',(-1.,0.,0.));
#1357=DIRECTION('center_axis',(0.,0.,1.));
#1358=DIRECTION('ref_axis',(-1.,0.,0.));
#1359=DIRECTION('',(0.,0.,1.));
#1360=DIRECTION('center_axis',(0.,0.,1.));
#1361=DIRECTION('ref_axis',(-1.,0.,0.));
#1362=DIRECTION('',(0.,0.,1.));
#1363=DIRECTION('center_axis',(0.,0.,-1.));
#1364=DIRECTION('ref_axis',(-1.,0.,0.));
#1365=DIRECTION('center_axis',(0.,0.,1.));
#1366=DIRECTION('ref_axis',(-1.,0.,0.));
#1367=DIRECTION('center_axis',(0.,0.,1.));
#1368=DIRECTION('ref_axis',(-1.,0.,0.));
#1369=DIRECTION('center_axis',(0.,0.,1.));
#1370=DIRECTION('ref_axis',(-1.,0.,0.));
#1371=DIRECTION('center_axis',(0.,0.,1.));
#1372=DIRECTION('ref_axis',(-1.,0.,0.));
#1373=DIRECTION('center_axis',(0.,0.,1.));
#1374=DIRECTION('ref_axis',(-1.,0.,0.));
#1375=DIRECTION('',(0.,0.,1.));
#1376=DIRECTION('center_axis',(0.,0.,1.));
#1377=DIRECTION('ref_axis',(-1.,0.,0.));
#1378=DIRECTION('',(0.,0.,1.));
#1379=DIRECTION('center_axis',(0.,0.,-1.));
#1380=DIRECTION('ref_axis',(-1.,0.,0.));
#1381=DIRECTION('center_axis',(-1.,0.,0.));
#1382=DIRECTION('ref_axis',(0.,1.,0.));
#1383=DIRECTION('',(0.,1.,0.));
#1384=DIRECTION('',(0.,0.,-1.));
#1385=DIRECTION('',(0.,1.,0.));
#1386=DIRECTION('',(0.,0.,-1.));
#1387=DIRECTION('center_axis',(0.,-1.,0.));
#1388=DIRECTION('ref_axis',(-1.,0.,0.));
#1389=DIRECTION('',(-1.,0.,0.));
#1390=DIRECTION('',(0.,0.,-1.));
#1391=DIRECTION('',(-1.,0.,0.));
#1392=DIRECTION('center_axis',(1.,0.,0.));
#1393=DIRECTION('ref_axis',(0.,-1.,0.));
#1394=DIRECTION('',(0.,-1.,0.));
#1395=DIRECTION('',(0.,0.,-1.));
#1396=DIRECTION('',(0.,-1.,0.));
#1397=DIRECTION('center_axis',(0.,0.,-1.));
#1398=DIRECTION('ref_axis',(-1.,0.,0.));
#1399=DIRECTION('',(1.,0.,0.));
#1400=DIRECTION('center_axis',(0.,0.,1.));
#1401=DIRECTION('ref_axis',(1.,0.,0.));
#1402=DIRECTION('',(-1.,0.,0.));
#1403=DIRECTION('',(0.,-1.,0.));
#1404=DIRECTION('',(-1.,0.,0.));
#1405=DIRECTION('',(0.,1.,0.));
#1406=DIRECTION('',(-1.,0.,0.));
#1407=DIRECTION('',(0.,-1.,0.));
#1408=DIRECTION('',(1.,0.,0.));
#1409=DIRECTION('',(0.,-1.,0.));
#1410=DIRECTION('',(-1.,0.,0.));
#1411=DIRECTION('',(0.,-1.,0.));
#1412=DIRECTION('',(1.,0.,0.));
#1413=DIRECTION('',(0.,-1.,0.));
#1414=DIRECTION('',(-1.,0.,0.));
#1415=DIRECTION('',(0.,-1.,0.));
#1416=DIRECTION('',(1.,0.,0.));
#1417=DIRECTION('',(0.,1.,0.));
#1418=DIRECTION('',(1.,0.,0.));
#1419=DIRECTION('',(0.,-1.,0.));
#1420=DIRECTION('',(1.,0.,0.));
#1421=DIRECTION('',(1.6296851737617E-16,1.,0.));
#1422=DIRECTION('',(-1.,0.,0.));
#1423=DIRECTION('',(0.,1.,0.));
#1424=DIRECTION('',(1.,0.,0.));
#1425=DIRECTION('',(1.6296851737617E-16,1.,0.));
#1426=DIRECTION('',(-1.,0.,0.));
#1427=DIRECTION('',(0.,1.,0.));
#1428=DIRECTION('',(1.,0.,0.));
#1429=DIRECTION('',(1.6296851737617E-16,1.,0.));
#1430=DIRECTION('',(-1.,0.,0.));
#1431=DIRECTION('',(1.,0.,0.));
#1432=DIRECTION('',(0.,-1.,0.));
#1433=DIRECTION('',(-1.,0.,0.));
#1434=DIRECTION('',(0.,1.,0.));
#1435=DIRECTION('',(1.,0.,0.));
#1436=DIRECTION('',(0.,1.,0.));
#1437=DIRECTION('center_axis',(1.43563322149805E-16,0.,-1.));
#1438=DIRECTION('ref_axis',(-1.,0.,-1.43563322149805E-16));
#1439=DIRECTION('',(-1.,0.,-1.43563322149805E-16));
#1440=DIRECTION('',(0.,1.,0.));
#1441=DIRECTION('',(1.,0.,1.43563322149805E-16));
#1442=DIRECTION('',(0.,1.,0.));
#1443=DIRECTION('center_axis',(0.,1.,0.));
#1444=DIRECTION('ref_axis',(1.23358113847239E-15,0.,-1.));
#1445=DIRECTION('center_axis',(0.,1.,0.));
#1446=DIRECTION('ref_axis',(1.23358113847239E-15,0.,-1.));
#1447=DIRECTION('',(0.,1.,0.));
#1448=DIRECTION('center_axis',(0.,-1.,0.));
#1449=DIRECTION('ref_axis',(1.23358113847239E-15,0.,-1.));
#1450=DIRECTION('center_axis',(0.,0.,1.));
#1451=DIRECTION('ref_axis',(1.,0.,0.));
#1452=DIRECTION('',(1.,0.,0.));
#1453=DIRECTION('',(0.,1.,0.));
#1454=DIRECTION('',(-1.,0.,0.));
#1455=DIRECTION('center_axis',(0.,1.,0.));
#1456=DIRECTION('ref_axis',(-1.2335811384724E-15,0.,1.));
#1457=DIRECTION('center_axis',(0.,1.,0.));
#1458=DIRECTION('ref_axis',(-1.2335811384724E-15,0.,1.));
#1459=DIRECTION('center_axis',(0.,-1.,0.));
#1460=DIRECTION('ref_axis',(-1.2335811384724E-15,0.,1.));
#1461=DIRECTION('center_axis',(0.,1.,0.));
#1462=DIRECTION('ref_axis',(1.,0.,0.));
#1463=DIRECTION('center_axis',(0.,1.,0.));
#1464=DIRECTION('ref_axis',(1.,0.,0.));
#1465=DIRECTION('',(0.,1.,0.));
#1466=DIRECTION('center_axis',(0.,-1.,0.));
#1467=DIRECTION('ref_axis',(1.,0.,0.));
#1468=DIRECTION('center_axis',(1.,0.,0.));
#1469=DIRECTION('ref_axis',(0.,1.,0.));
#1470=DIRECTION('',(0.,0.,1.));
#1471=DIRECTION('',(0.,-1.,0.));
#1472=DIRECTION('',(0.,0.,1.));
#1473=DIRECTION('',(0.,0.,1.));
#1474=DIRECTION('',(0.,1.,0.));
#1475=DIRECTION('',(0.,0.,1.));
#1476=DIRECTION('',(0.,0.,1.));
#1477=DIRECTION('',(0.,-1.,0.));
#1478=DIRECTION('',(0.,0.,1.));
#1479=DIRECTION('center_axis',(0.,-1.,0.));
#1480=DIRECTION('ref_axis',(1.,0.,0.));
#1481=DIRECTION('',(0.,0.,1.));
#1482=DIRECTION('',(-1.,0.,0.));
#1483=DIRECTION('',(0.,0.,1.));
#1484=DIRECTION('',(0.,0.,1.));
#1485=DIRECTION('',(1.,0.,0.));
#1486=DIRECTION('center_axis',(-1.,1.6296851737617E-16,0.));
#1487=DIRECTION('ref_axis',(-1.6296851737617E-16,-1.,0.));
#1488=DIRECTION('',(0.,0.,1.));
#1489=DIRECTION('',(0.,1.,0.));
#1490=DIRECTION('',(0.,0.,1.));
#1491=DIRECTION('',(0.,0.,1.));
#1492=DIRECTION('',(0.,1.,0.));
#1493=DIRECTION('',(0.,0.,1.));
#1494=DIRECTION('',(0.,0.,1.));
#1495=DIRECTION('',(-1.6296851737617E-16,-1.,0.));
#1496=DIRECTION('center_axis',(0.,1.,0.));
#1497=DIRECTION('ref_axis',(-1.,0.,0.));
#1498=DIRECTION('',(0.,0.,1.));
#1499=DIRECTION('',(-1.,0.,0.));
#1500=DIRECTION('',(0.,0.,1.));
#1501=DIRECTION('',(1.,0.,0.));
#1502=DIRECTION('center_axis',(0.,0.,1.));
#1503=DIRECTION('ref_axis',(1.,0.,0.));
#1504=DIRECTION('',(0.,1.,0.));
#1505=DIRECTION('',(-1.,0.,0.));
#1506=DIRECTION('',(0.,-1.,0.));
#1507=DIRECTION('',(1.,0.,0.));
#1508=DIRECTION('center_axis',(0.,-1.,0.));
#1509=DIRECTION('ref_axis',(1.,0.,0.));
#1510=DIRECTION('',(0.,0.,1.));
#1511=DIRECTION('',(1.,0.,0.));
#1512=DIRECTION('',(0.,0.,1.));
#1513=DIRECTION('center_axis',(-1.,0.,0.));
#1514=DIRECTION('ref_axis',(0.,-1.,0.));
#1515=DIRECTION('',(0.,-1.,0.));
#1516=DIRECTION('center_axis',(1.,0.,0.));
#1517=DIRECTION('ref_axis',(0.,1.,0.));
#1518=DIRECTION('',(0.,1.,0.));
#1519=DIRECTION('center_axis',(0.,0.,1.));
#1520=DIRECTION('ref_axis',(1.,0.,0.));
#1521=DIRECTION('center_axis',(0.,-1.,0.));
#1522=DIRECTION('ref_axis',(1.,0.,0.));
#1523=DIRECTION('',(1.,0.,0.));
#1524=DIRECTION('',(0.,0.,1.));
#1525=DIRECTION('center_axis',(-1.,0.,0.));
#1526=DIRECTION('ref_axis',(0.,-1.,0.));
#1527=DIRECTION('',(0.,-1.,0.));
#1528=DIRECTION('',(0.,0.,1.));
#1529=DIRECTION('center_axis',(0.,1.,0.));
#1530=DIRECTION('ref_axis',(-1.,0.,0.));
#1531=DIRECTION('',(-1.,0.,0.));
#1532=DIRECTION('center_axis',(0.,0.,1.));
#1533=DIRECTION('ref_axis',(1.,0.,0.));
#1534=DIRECTION('center_axis',(0.,1.,0.));
#1535=DIRECTION('ref_axis',(-1.,0.,0.));
#1536=DIRECTION('',(-1.,0.,0.));
#1537=DIRECTION('',(0.,0.,1.));
#1538=DIRECTION('center_axis',(1.,0.,0.));
#1539=DIRECTION('ref_axis',(0.,1.,0.));
#1540=DIRECTION('',(0.,1.,0.));
#1541=DIRECTION('',(0.,0.,1.));
#1542=DIRECTION('center_axis',(0.,-1.,0.));
#1543=DIRECTION('ref_axis',(1.,0.,0.));
#1544=DIRECTION('',(1.,0.,0.));
#1545=DIRECTION('center_axis',(0.,0.,1.));
#1546=DIRECTION('ref_axis',(1.,0.,0.));
#1547=DIRECTION('center_axis',(0.,1.,0.));
#1548=DIRECTION('ref_axis',(-1.,0.,0.));
#1549=DIRECTION('',(0.,0.,1.));
#1550=DIRECTION('',(-1.,0.,0.));
#1551=DIRECTION('',(0.,0.,1.));
#1552=DIRECTION('center_axis',(1.,0.,0.));
#1553=DIRECTION('ref_axis',(0.,1.,0.));
#1554=DIRECTION('',(0.,1.,0.));
#1555=DIRECTION('',(0.,0.,1.));
#1556=DIRECTION('center_axis',(0.,-1.,0.));
#1557=DIRECTION('ref_axis',(1.,0.,0.));
#1558=DIRECTION('',(1.,0.,0.));
#1559=DIRECTION('',(0.,0.,1.));
#1560=DIRECTION('center_axis',(-1.,0.,0.));
#1561=DIRECTION('ref_axis',(0.,-1.,0.));
#1562=DIRECTION('',(0.,-1.,0.));
#1563=DIRECTION('',(0.,0.,1.));
#1564=DIRECTION('center_axis',(0.,1.,0.));
#1565=DIRECTION('ref_axis',(-1.,0.,0.));
#1566=DIRECTION('',(-1.,0.,0.));
#1567=DIRECTION('',(0.,0.,1.));
#1568=DIRECTION('center_axis',(-1.,0.,0.));
#1569=DIRECTION('ref_axis',(0.,-1.,0.));
#1570=DIRECTION('',(0.,-1.,0.));
#1571=DIRECTION('center_axis',(0.,0.,1.));
#1572=DIRECTION('ref_axis',(1.,0.,0.));
#1573=DIRECTION('center_axis',(0.,-1.,0.));
#1574=DIRECTION('ref_axis',(1.,0.,0.));
#1575=DIRECTION('',(1.,0.,0.));
#1576=DIRECTION('',(0.,0.,1.));
#1577=DIRECTION('center_axis',(-1.,0.,0.));
#1578=DIRECTION('ref_axis',(0.,-1.,0.));
#1579=DIRECTION('',(0.,-1.,0.));
#1580=DIRECTION('',(0.,0.,1.));
#1581=DIRECTION('center_axis',(0.,1.,0.));
#1582=DIRECTION('ref_axis',(-1.,0.,0.));
#1583=DIRECTION('',(-1.,0.,0.));
#1584=DIRECTION('center_axis',(0.,0.,1.));
#1585=DIRECTION('ref_axis',(1.,0.,0.));
#1586=DIRECTION('center_axis',(0.,1.,0.));
#1587=DIRECTION('ref_axis',(-1.,0.,0.));
#1588=DIRECTION('',(-1.,0.,0.));
#1589=DIRECTION('',(0.,0.,1.));
#1590=DIRECTION('center_axis',(1.,0.,0.));
#1591=DIRECTION('ref_axis',(0.,1.,0.));
#1592=DIRECTION('',(0.,1.,0.));
#1593=DIRECTION('',(0.,0.,1.));
#1594=DIRECTION('center_axis',(0.,-1.,0.));
#1595=DIRECTION('ref_axis',(1.,0.,0.));
#1596=DIRECTION('',(1.,0.,0.));
#1597=DIRECTION('center_axis',(0.,0.,1.));
#1598=DIRECTION('ref_axis',(1.,0.,0.));
#1599=DIRECTION('center_axis',(0.,1.,0.));
#1600=DIRECTION('ref_axis',(-1.,0.,0.));
#1601=DIRECTION('',(0.,0.,1.));
#1602=DIRECTION('',(-1.,0.,0.));
#1603=DIRECTION('',(0.,0.,1.));
#1604=DIRECTION('center_axis',(1.,0.,0.));
#1605=DIRECTION('ref_axis',(0.,1.,0.));
#1606=DIRECTION('',(0.,1.,0.));
#1607=DIRECTION('center_axis',(-1.,0.,0.));
#1608=DIRECTION('ref_axis',(0.,-1.,0.));
#1609=DIRECTION('',(0.,-1.,0.));
#1610=DIRECTION('center_axis',(0.,0.,1.));
#1611=DIRECTION('ref_axis',(1.,0.,0.));
#1612=DIRECTION('center_axis',(0.,1.,0.));
#1613=DIRECTION('ref_axis',(1.,0.,0.));
#1614=DIRECTION('',(0.,0.,1.));
#1615=DIRECTION('',(1.,0.,0.));
#1616=DIRECTION('',(0.,0.,1.));
#1617=DIRECTION('center_axis',(-1.,0.,0.));
#1618=DIRECTION('ref_axis',(0.,1.,0.));
#1619=DIRECTION('',(0.,1.,0.));
#1620=DIRECTION('',(0.,0.,1.));
#1621=DIRECTION('center_axis',(0.,-1.,0.));
#1622=DIRECTION('ref_axis',(-1.,0.,0.));
#1623=DIRECTION('',(-1.,0.,0.));
#1624=DIRECTION('',(0.,0.,1.));
#1625=DIRECTION('center_axis',(1.,0.,0.));
#1626=DIRECTION('ref_axis',(0.,-1.,0.));
#1627=DIRECTION('',(0.,-1.,0.));
#1628=DIRECTION('center_axis',(0.,0.,-1.));
#1629=DIRECTION('ref_axis',(-1.,0.,0.));
#1630=CARTESIAN_POINT('',(0.,0.,0.));
#1631=CARTESIAN_POINT('Origin',(-38.1599999999997,-19.8799999999998,-0.8));
#1632=CARTESIAN_POINT('',(-36.0099999999997,-19.8799999999998,-0.8));
#1633=CARTESIAN_POINT('Origin',(-38.1599999999997,-19.8799999999998,-0.8));
#1634=CARTESIAN_POINT('',(-36.9099999999997,-19.8799999999998,-0.8));
#1635=CARTESIAN_POINT('Origin',(-38.1599999999997,-19.8799999999998,-0.8));
#1636=CARTESIAN_POINT('Origin',(-38.1599999999997,-19.8799999999998,-1.4));
#1637=CARTESIAN_POINT('',(-36.0099999999997,-19.8799999999998,-2.));
#1638=CARTESIAN_POINT('Origin',(-38.1599999999997,-19.8799999999998,-2.));
#1639=CARTESIAN_POINT('',(-36.0099999999997,-19.8799999999998,-1.4));
#1640=CARTESIAN_POINT('Origin',(-38.1599999999997,-19.8799999999998,2.25));
#1641=CARTESIAN_POINT('',(-36.9099999999997,-19.8799999999998,3.9));
#1642=CARTESIAN_POINT('',(-36.9099999999997,-19.8799999999998,2.25));
#1643=CARTESIAN_POINT('Origin',(-38.1599999999997,-19.8799999999998,3.9));
#1644=CARTESIAN_POINT('Origin',(38.1600000000003,19.8800000000002,-0.8));
#1645=CARTESIAN_POINT('',(40.3100000000003,19.8800000000002,-0.8));
#1646=CARTESIAN_POINT('Origin',(38.1600000000003,19.8800000000002,-0.8));
#1647=CARTESIAN_POINT('',(39.4100000000003,19.8800000000002,-0.8));
#1648=CARTESIAN_POINT('Origin',(38.1600000000003,19.8800000000002,-0.8));
#1649=CARTESIAN_POINT('Origin',(38.1600000000003,19.8800000000002,-1.4));
#1650=CARTESIAN_POINT('',(40.3100000000003,19.8800000000002,-2.));
#1651=CARTESIAN_POINT('Origin',(38.1600000000003,19.8800000000002,-2.));
#1652=CARTESIAN_POINT('',(40.3100000000003,19.8800000000002,-1.4));
#1653=CARTESIAN_POINT('Origin',(38.1600000000003,19.8800000000002,2.25));
#1654=CARTESIAN_POINT('',(39.4100000000003,19.8800000000002,3.9));
#1655=CARTESIAN_POINT('',(39.4100000000003,19.8800000000002,2.25));
#1656=CARTESIAN_POINT('Origin',(38.1600000000003,19.8800000000002,3.9));
#1657=CARTESIAN_POINT('Origin',(38.1600000000003,-19.8799999999998,-0.8));
#1658=CARTESIAN_POINT('',(40.3100000000003,-19.8799999999998,-0.8));
#1659=CARTESIAN_POINT('Origin',(38.1600000000003,-19.8799999999998,-0.8));
#1660=CARTESIAN_POINT('',(39.4100000000003,-19.8799999999998,-0.8));
#1661=CARTESIAN_POINT('Origin',(38.1600000000003,-19.8799999999998,-0.8));
#1662=CARTESIAN_POINT('Origin',(38.1600000000003,-19.8799999999998,-1.4));
#1663=CARTESIAN_POINT('',(40.3100000000003,-19.8799999999998,-2.));
#1664=CARTESIAN_POINT('Origin',(38.1600000000003,-19.8799999999998,-2.));
#1665=CARTESIAN_POINT('',(40.3100000000003,-19.8799999999998,-1.4));
#1666=CARTESIAN_POINT('Origin',(38.1600000000003,-19.8799999999998,2.25));
#1667=CARTESIAN_POINT('',(39.4100000000003,-19.8799999999998,3.9));
#1668=CARTESIAN_POINT('',(39.4100000000003,-19.8799999999998,2.25));
#1669=CARTESIAN_POINT('Origin',(38.1600000000003,-19.8799999999998,3.9));
#1670=CARTESIAN_POINT('Origin',(-38.1599999999997,19.8800000000002,-0.8));
#1671=CARTESIAN_POINT('',(-36.0099999999997,19.8800000000002,-0.8));
#1672=CARTESIAN_POINT('Origin',(-38.1599999999997,19.8800000000002,-0.8));
#1673=CARTESIAN_POINT('',(-36.9099999999997,19.8800000000002,-0.8));
#1674=CARTESIAN_POINT('Origin',(-38.1599999999997,19.8800000000002,-0.8));
#1675=CARTESIAN_POINT('Origin',(-38.1599999999997,19.8800000000002,-1.4));
#1676=CARTESIAN_POINT('',(-36.0099999999997,19.8800000000002,-2.));
#1677=CARTESIAN_POINT('Origin',(-38.1599999999997,19.8800000000002,-2.));
#1678=CARTESIAN_POINT('',(-36.0099999999997,19.8800000000002,-1.4));
#1679=CARTESIAN_POINT('Origin',(-38.1599999999997,19.8800000000002,2.25));
#1680=CARTESIAN_POINT('',(-36.9099999999997,19.8800000000002,3.9));
#1681=CARTESIAN_POINT('',(-36.9099999999997,19.8800000000002,2.25));
#1682=CARTESIAN_POINT('Origin',(-38.1599999999997,19.8800000000002,3.9));
#1683=CARTESIAN_POINT('Origin',(4.99789064043646,23.2500000000002,0.));
#1684=CARTESIAN_POINT('',(4.99789064043646,23.2500000000002,0.));
#1685=CARTESIAN_POINT('',(4.99789064043646,31.2500000000002,0.));
#1686=CARTESIAN_POINT('',(4.99789064043646,12.6250000000002,0.));
#1687=CARTESIAN_POINT('',(4.99789064043646,23.2500000000002,-1.));
#1688=CARTESIAN_POINT('',(4.99789064043646,23.2500000000002,0.));
#1689=CARTESIAN_POINT('',(4.99789064043646,31.2500000000002,-1.));
#1690=CARTESIAN_POINT('',(4.99789064043646,31.2500000000002,-1.));
#1691=CARTESIAN_POINT('',(4.99789064043646,31.2500000000002,0.));
#1692=CARTESIAN_POINT('Origin',(10.9978906404365,23.2500000000002,0.));
#1693=CARTESIAN_POINT('',(10.9978906404365,23.2500000000002,0.));
#1694=CARTESIAN_POINT('',(5.49894532021839,23.2500000000002,0.));
#1695=CARTESIAN_POINT('',(10.9978906404365,23.2500000000002,-1.));
#1696=CARTESIAN_POINT('',(10.9978906404365,23.2500000000002,0.));
#1697=CARTESIAN_POINT('',(4.99789064043646,23.2500000000002,-1.));
#1698=CARTESIAN_POINT('Origin',(10.9978906404365,31.2500000000002,0.));
#1699=CARTESIAN_POINT('',(10.9978906404365,31.2500000000002,0.));
#1700=CARTESIAN_POINT('',(10.9978906404365,16.6250000000002,0.));
#1701=CARTESIAN_POINT('',(10.9978906404365,31.2500000000002,-1.));
#1702=CARTESIAN_POINT('',(10.9978906404365,31.2500000000002,0.));
#1703=CARTESIAN_POINT('',(10.9978906404365,23.2500000000002,-1.));
#1704=CARTESIAN_POINT('Origin',(7.99789064043646,27.2500000000002,-1.));
#1705=CARTESIAN_POINT('',(10.9978906404365,31.2500000000002,-1.));
#1706=CARTESIAN_POINT('Origin',(3.10862446895044E-13,2.00000000000017,0.));
#1707=CARTESIAN_POINT('',(-25.4999999999997,31.2500000000002,0.));
#1708=CARTESIAN_POINT('',(-20.2499999999997,31.2500000000002,0.));
#1709=CARTESIAN_POINT('',(-25.4999999999997,21.2500000000002,0.));
#1710=CARTESIAN_POINT('',(-25.4999999999997,11.6250000000002,0.));
#1711=CARTESIAN_POINT('',(-27.4999999999997,21.2500000000002,0.));
#1712=CARTESIAN_POINT('',(-13.7499999999997,21.2500000000002,0.));
#1713=CARTESIAN_POINT('',(-27.4999999999997,31.2500000000002,0.));
#1714=CARTESIAN_POINT('',(-27.4999999999997,16.6250000000002,0.));
#1715=CARTESIAN_POINT('',(-40.4999999999997,31.2500000000002,0.));
#1716=CARTESIAN_POINT('',(-20.2499999999997,31.2500000000002,0.));
#1717=CARTESIAN_POINT('',(-40.500000603497,24.0000000000002,0.));
#1718=CARTESIAN_POINT('',(-40.4999999999997,-12.6249999999998,0.));
#1719=CARTESIAN_POINT('',(-35.8199993965024,24.0000000000002,0.));
#1720=CARTESIAN_POINT('',(-17.909999698251,24.0000000000002,0.));
#1721=CARTESIAN_POINT('',(-35.8199993965024,15.7600000000002,0.));
#1722=CARTESIAN_POINT('',(-35.8199993965024,8.88000000000018,0.));
#1723=CARTESIAN_POINT('',(-40.500000603497,15.7600000000002,0.));
#1724=CARTESIAN_POINT('',(-20.2500003017484,15.7600000000002,0.));
#1725=CARTESIAN_POINT('',(-40.500000603497,-15.7599996423718,0.));
#1726=CARTESIAN_POINT('',(-40.4999999999997,-12.6249999999998,0.));
#1727=CARTESIAN_POINT('',(-35.8199993965023,-15.7599996423718,0.));
#1728=CARTESIAN_POINT('',(-17.909999698251,-15.7599996423718,0.));
#1729=CARTESIAN_POINT('',(-35.8199993965023,-24.0000003576279,0.));
#1730=CARTESIAN_POINT('',(-35.8199993965023,-11.0000001788138,0.));
#1731=CARTESIAN_POINT('',(-40.500000603497,-24.0000003576279,0.));
#1732=CARTESIAN_POINT('',(-20.2500003017484,-24.0000003576279,0.));
#1733=CARTESIAN_POINT('',(-40.4999999999997,-27.2499999999998,0.));
#1734=CARTESIAN_POINT('',(-40.4999999999997,-12.6249999999998,0.));
#1735=CARTESIAN_POINT('',(4.98039033725116,-27.2499999999998,0.));
#1736=CARTESIAN_POINT('',(20.2500000000003,-27.2499999999998,0.));
#1737=CARTESIAN_POINT('',(4.98039033725116,-22.2499999999998,0.));
#1738=CARTESIAN_POINT('',(4.98039033725116,-10.1249999999998,0.));
#1739=CARTESIAN_POINT('',(19.9803903372512,-22.2499999999998,0.));
#1740=CARTESIAN_POINT('',(9.99019516862574,-22.2499999999998,0.));
#1741=CARTESIAN_POINT('',(19.9803903372512,-27.2499999999998,0.));
#1742=CARTESIAN_POINT('',(19.9803903372512,-12.6249999999998,0.));
#1743=CARTESIAN_POINT('',(40.5000000000003,-27.2499999999998,0.));
#1744=CARTESIAN_POINT('',(20.2500000000003,-27.2499999999998,0.));
#1745=CARTESIAN_POINT('',(40.5000000000003,-23.9999999999998,0.));
#1746=CARTESIAN_POINT('',(40.5000000000003,16.6250000000002,0.));
#1747=CARTESIAN_POINT('',(35.8200000000003,-23.9999999999998,0.));
#1748=CARTESIAN_POINT('',(17.9100000000003,-23.9999999999998,0.));
#1749=CARTESIAN_POINT('',(35.8200000000003,-15.7599999999998,0.));
#1750=CARTESIAN_POINT('',(35.8200000000003,-6.87999999999982,0.));
#1751=CARTESIAN_POINT('',(40.5000000000003,-15.7599999999998,0.));
#1752=CARTESIAN_POINT('',(20.2500000000003,-15.7599999999998,0.));
#1753=CARTESIAN_POINT('',(40.500000603497,15.7599996423725,0.));
#1754=CARTESIAN_POINT('',(40.5000000000003,16.6250000000002,0.));
#1755=CARTESIAN_POINT('',(35.8199993965036,15.7599996423725,0.));
#1756=CARTESIAN_POINT('',(17.909999698252,15.7599996423725,0.));
#1757=CARTESIAN_POINT('',(35.8199993965036,24.0000003576279,0.));
#1758=CARTESIAN_POINT('',(35.8199993965036,13.000000178814,0.));
#1759=CARTESIAN_POINT('',(40.500000603497,24.0000003576279,0.));
#1760=CARTESIAN_POINT('',(20.2500003017487,24.0000003576279,0.));
#1761=CARTESIAN_POINT('',(40.5000000000003,31.2500000000002,0.));
#1762=CARTESIAN_POINT('',(40.5000000000003,16.6250000000002,0.));
#1763=CARTESIAN_POINT('',(-20.2499999999997,31.2500000000002,0.));
#1764=CARTESIAN_POINT('',(-6.99999999999844,27.2500000000002,0.));
#1765=CARTESIAN_POINT('',(-4.99999999999844,27.2500000000002,0.));
#1766=CARTESIAN_POINT('',(-2.49999999999906,27.2500000000002,0.));
#1767=CARTESIAN_POINT('',(-4.99999999999844,3.75000000000083,0.));
#1768=CARTESIAN_POINT('',(-4.99999999999844,2.8750000000005,0.));
#1769=CARTESIAN_POINT('',(-25.4999999999984,3.75000000000083,0.));
#1770=CARTESIAN_POINT('',(-12.7499999999991,3.75000000000083,0.));
#1771=CARTESIAN_POINT('',(-25.4999999999984,7.75000000000018,0.));
#1772=CARTESIAN_POINT('',(-25.4999999999984,4.87500000000018,0.));
#1773=CARTESIAN_POINT('',(-6.99999999999844,7.75000000000018,0.));
#1774=CARTESIAN_POINT('',(-3.49999999999906,7.75000000000018,0.));
#1775=CARTESIAN_POINT('',(-6.99999999999844,14.6250000000002,0.));
#1776=CARTESIAN_POINT('Origin',(-13.3500000521539,31.2500000000002,0.4));
#1777=CARTESIAN_POINT('',(-13.3500000521539,31.2500000000002,0.4));
#1778=CARTESIAN_POINT('',(-19.1500000521539,31.2500000000002,0.399999999999999));
#1779=CARTESIAN_POINT('',(-26.9250000260768,31.2500000000002,0.399999999999998));
#1780=CARTESIAN_POINT('',(-13.3500000521539,33.7500000000002,0.4));
#1781=CARTESIAN_POINT('',(-13.3500000521539,31.2500000000002,0.4));
#1782=CARTESIAN_POINT('',(-19.1500000521539,33.7500000000002,0.399999999999999));
#1783=CARTESIAN_POINT('',(-28.1750000260768,33.7500000000002,0.399999999999998));
#1784=CARTESIAN_POINT('',(-19.1500000521539,31.2500000000002,0.399999999999999));
#1785=CARTESIAN_POINT('Origin',(-13.3500000521539,31.2500000000002,2.2));
#1786=CARTESIAN_POINT('',(-13.3500000521539,31.2500000000002,4.));
#1787=CARTESIAN_POINT('Origin',(-13.3500000521539,31.2500000000002,2.2));
#1788=CARTESIAN_POINT('',(-13.3500000521539,33.7500000000002,4.));
#1789=CARTESIAN_POINT('',(-13.3500000521539,31.2500000000002,4.));
#1790=CARTESIAN_POINT('Origin',(-13.3500000521539,33.7500000000002,2.2));
#1791=CARTESIAN_POINT('Origin',(-19.1500000521539,31.2500000000002,4.));
#1792=CARTESIAN_POINT('',(-19.1500000521539,31.2500000000002,4.));
#1793=CARTESIAN_POINT('',(-29.8250000260768,31.2500000000002,4.));
#1794=CARTESIAN_POINT('',(-19.1500000521539,33.7500000000002,4.));
#1795=CARTESIAN_POINT('',(-19.1500000521539,31.2500000000002,4.));
#1796=CARTESIAN_POINT('',(-31.0750000260768,33.7500000000002,4.));
#1797=CARTESIAN_POINT('Origin',(-19.1500000521539,31.2500000000002,2.2));
#1798=CARTESIAN_POINT('Origin',(-19.1500000521539,31.2500000000002,2.2));
#1799=CARTESIAN_POINT('Origin',(-19.1500000521539,33.7500000000002,2.2));
#1800=CARTESIAN_POINT('Origin',(7.99789064043646,31.2500000000002,2.));
#1801=CARTESIAN_POINT('',(6.12289064043646,31.2500000000002,2.));
#1802=CARTESIAN_POINT('Origin',(7.99789064043646,31.2500000000002,2.));
#1803=CARTESIAN_POINT('',(6.12289064043646,33.7500000000002,2.));
#1804=CARTESIAN_POINT('',(6.12289064043646,31.2500000000002,2.));
#1805=CARTESIAN_POINT('Origin',(7.99789064043646,33.7500000000002,2.));
#1806=CARTESIAN_POINT('Origin',(-40.4999999999997,-27.2499999999998,0.));
#1807=CARTESIAN_POINT('',(-40.500000603497,15.7600000000002,3.9));
#1808=CARTESIAN_POINT('',(-40.500000603497,15.7600000000002,0.));
#1809=CARTESIAN_POINT('',(-40.500000603497,24.0000000000002,3.9));
#1810=CARTESIAN_POINT('',(-40.500000603497,24.0000000000002,3.9));
#1811=CARTESIAN_POINT('',(-40.500000603497,24.0000000000002,0.));
#1812=CARTESIAN_POINT('',(-40.4999999999997,31.2500000000002,5.2));
#1813=CARTESIAN_POINT('',(-40.4999999999997,31.2500000000002,0.));
#1814=CARTESIAN_POINT('',(-40.4999999999997,-27.2499999999998,5.2));
#1815=CARTESIAN_POINT('',(-40.4999999999997,31.2500000000002,5.2));
#1816=CARTESIAN_POINT('',(-40.4999999999997,-27.2499999999998,0.));
#1817=CARTESIAN_POINT('',(-40.500000603497,-24.0000003576279,3.9));
#1818=CARTESIAN_POINT('',(-40.500000603497,-24.0000003576279,0.));
#1819=CARTESIAN_POINT('',(-40.500000603497,-15.7599996423718,3.9));
#1820=CARTESIAN_POINT('',(-40.500000603497,-15.7599996423718,3.9));
#1821=CARTESIAN_POINT('',(-40.500000603497,-15.7599996423718,0.));
#1822=CARTESIAN_POINT('Origin',(-40.4999999999997,31.2500000000002,0.));
#1823=CARTESIAN_POINT('',(-27.4999999999997,31.2500000000002,3.9));
#1824=CARTESIAN_POINT('',(-27.4999999999997,31.2500000000002,0.));
#1825=CARTESIAN_POINT('',(-25.4999999999997,31.2500000000002,3.9));
#1826=CARTESIAN_POINT('',(-25.4999999999997,31.2500000000002,3.9));
#1827=CARTESIAN_POINT('',(-25.4999999999997,31.2500000000002,0.));
#1828=CARTESIAN_POINT('',(40.5000000000003,31.2500000000002,5.2));
#1829=CARTESIAN_POINT('',(40.5000000000003,31.2500000000002,0.));
#1830=CARTESIAN_POINT('',(40.5000000000003,31.2500000000002,5.2));
#1831=CARTESIAN_POINT('Origin',(40.5000000000003,31.2500000000002,0.));
#1832=CARTESIAN_POINT('',(40.500000603497,24.0000003576279,3.9));
#1833=CARTESIAN_POINT('',(40.500000603497,24.0000003576279,0.));
#1834=CARTESIAN_POINT('',(40.500000603497,15.7599996423725,3.9));
#1835=CARTESIAN_POINT('',(40.500000603497,15.7599996423725,3.9));
#1836=CARTESIAN_POINT('',(40.500000603497,15.7599996423725,0.));
#1837=CARTESIAN_POINT('',(40.5000000000003,-15.7599999999998,3.9));
#1838=CARTESIAN_POINT('',(40.5000000000003,-15.7599999999998,0.));
#1839=CARTESIAN_POINT('',(40.5000000000003,-23.9999999999998,3.9));
#1840=CARTESIAN_POINT('',(40.5000000000003,-23.9999999999998,3.9));
#1841=CARTESIAN_POINT('',(40.5000000000003,-23.9999999999998,0.));
#1842=CARTESIAN_POINT('',(40.5000000000003,-27.2499999999998,5.2));
#1843=CARTESIAN_POINT('',(40.5000000000003,-27.2499999999998,0.));
#1844=CARTESIAN_POINT('',(40.5000000000003,27.2500000000002,5.2));
#1845=CARTESIAN_POINT('Origin',(40.5000000000003,-27.2499999999998,0.));
#1846=CARTESIAN_POINT('',(4.98039033725116,-27.2499999999998,3.9));
#1847=CARTESIAN_POINT('',(4.98039033725116,-27.2499999999998,0.));
#1848=CARTESIAN_POINT('',(40.5000000000003,-27.2499999999998,5.2));
#1849=CARTESIAN_POINT('',(19.9803903372512,-27.2499999999998,3.9));
#1850=CARTESIAN_POINT('',(19.9803903372512,-27.2499999999998,0.));
#1851=CARTESIAN_POINT('',(4.98039033725116,-27.2499999999998,3.9));
#1852=CARTESIAN_POINT('Origin',(3.10862446895044E-13,2.00000000000017,5.2));
#1853=CARTESIAN_POINT('',(43.0000000000003,-29.7499999999998,5.2));
#1854=CARTESIAN_POINT('',(43.0000000000003,33.7500000000002,5.2));
#1855=CARTESIAN_POINT('',(43.0000000000003,27.2500000000002,5.2));
#1856=CARTESIAN_POINT('',(-42.9999999999997,33.7500000000002,5.2));
#1857=CARTESIAN_POINT('',(43.0000000000003,33.7500000000002,5.2));
#1858=CARTESIAN_POINT('',(-42.9999999999997,-29.7499999999998,5.2));
#1859=CARTESIAN_POINT('',(-42.9999999999997,33.7500000000002,5.2));
#1860=CARTESIAN_POINT('',(43.0000000000003,-29.7499999999998,5.2));
#1861=CARTESIAN_POINT('Origin',(-27.4999999999997,21.2500000000002,0.));
#1862=CARTESIAN_POINT('',(-25.4999999999997,21.2500000000002,3.9));
#1863=CARTESIAN_POINT('',(-25.4999999999997,21.2500000000002,0.));
#1864=CARTESIAN_POINT('',(-27.4999999999997,21.2500000000002,3.9));
#1865=CARTESIAN_POINT('',(-27.4999999999997,21.2500000000002,3.9));
#1866=CARTESIAN_POINT('',(-27.4999999999997,21.2500000000002,0.));
#1867=CARTESIAN_POINT('Origin',(-27.4999999999997,31.2500000000002,0.));
#1868=CARTESIAN_POINT('',(-27.4999999999997,31.2500000000002,3.9));
#1869=CARTESIAN_POINT('Origin',(-25.4999999999997,21.2500000000002,0.));
#1870=CARTESIAN_POINT('',(-25.4999999999997,21.2500000000002,3.9));
#1871=CARTESIAN_POINT('Origin',(-26.4999999999997,26.2500000000002,3.9));
#1872=CARTESIAN_POINT('Origin',(35.8199993965036,15.7599996423725,0.));
#1873=CARTESIAN_POINT('',(35.8199993965036,15.7599996423725,3.9));
#1874=CARTESIAN_POINT('',(35.8199993965036,15.7599996423725,3.9));
#1875=CARTESIAN_POINT('',(35.8199993965036,15.7599996423725,0.));
#1876=CARTESIAN_POINT('Origin',(35.8199993965036,24.0000003576279,0.));
#1877=CARTESIAN_POINT('',(35.8199993965036,24.0000003576279,3.9));
#1878=CARTESIAN_POINT('',(35.8199993965036,24.0000003576279,3.9));
#1879=CARTESIAN_POINT('',(35.8199993965036,24.0000003576279,0.));
#1880=CARTESIAN_POINT('Origin',(40.500000603497,24.0000003576279,0.));
#1881=CARTESIAN_POINT('',(40.500000603497,24.0000003576279,3.9));
#1882=CARTESIAN_POINT('Origin',(38.1600000000003,19.8800000000002,3.9));
#1883=CARTESIAN_POINT('Origin',(-35.8199993965023,-15.7599996423718,0.));
#1884=CARTESIAN_POINT('',(-35.8199993965023,-15.7599996423718,3.9));
#1885=CARTESIAN_POINT('',(-35.8199993965023,-15.7599996423718,3.9));
#1886=CARTESIAN_POINT('',(-35.8199993965023,-15.7599996423718,0.));
#1887=CARTESIAN_POINT('Origin',(-35.8199993965023,-24.0000003576279,0.));
#1888=CARTESIAN_POINT('',(-35.8199993965023,-24.0000003576279,3.9));
#1889=CARTESIAN_POINT('',(-35.8199993965023,-24.0000003576279,3.9));
#1890=CARTESIAN_POINT('',(-35.8199993965023,-24.0000003576279,0.));
#1891=CARTESIAN_POINT('Origin',(-40.500000603497,-24.0000003576279,0.));
#1892=CARTESIAN_POINT('',(-40.500000603497,-24.0000003576279,3.9));
#1893=CARTESIAN_POINT('Origin',(-38.1599999999997,-19.8799999999998,3.9));
#1894=CARTESIAN_POINT('Origin',(-4.99999999999844,27.2500000000002,0.));
#1895=CARTESIAN_POINT('',(-6.99999999999844,27.2500000000002,3.9));
#1896=CARTESIAN_POINT('',(-6.99999999999844,27.2500000000002,0.));
#1897=CARTESIAN_POINT('',(-4.99999999999844,27.2500000000002,3.9));
#1898=CARTESIAN_POINT('',(-4.99999999999844,27.2500000000002,3.9));
#1899=CARTESIAN_POINT('',(-4.99999999999844,27.2500000000002,0.));
#1900=CARTESIAN_POINT('Origin',(-4.99999999999844,3.75000000000083,0.));
#1901=CARTESIAN_POINT('',(-4.99999999999844,3.75000000000083,3.9));
#1902=CARTESIAN_POINT('',(-4.99999999999844,3.75000000000083,3.9));
#1903=CARTESIAN_POINT('',(-4.99999999999844,3.75000000000083,0.));
#1904=CARTESIAN_POINT('Origin',(-25.4999999999984,3.75000000000083,0.));
#1905=CARTESIAN_POINT('',(-25.4999999999984,3.75000000000083,3.9));
#1906=CARTESIAN_POINT('',(-25.4999999999984,3.75000000000083,3.9));
#1907=CARTESIAN_POINT('',(-25.4999999999984,3.75000000000083,0.));
#1908=CARTESIAN_POINT('Origin',(-25.4999999999984,7.75000000000018,0.));
#1909=CARTESIAN_POINT('',(-25.4999999999984,7.75000000000018,3.9));
#1910=CARTESIAN_POINT('',(-25.4999999999984,7.75000000000018,3.9));
#1911=CARTESIAN_POINT('',(-25.4999999999984,7.75000000000018,0.));
#1912=CARTESIAN_POINT('Origin',(-6.99999999999844,7.75000000000018,0.));
#1913=CARTESIAN_POINT('',(-6.99999999999844,7.75000000000018,3.9));
#1914=CARTESIAN_POINT('',(-6.99999999999844,7.75000000000018,3.9));
#1915=CARTESIAN_POINT('',(-6.99999999999844,7.75000000000018,0.));
#1916=CARTESIAN_POINT('Origin',(-6.99999999999844,27.2500000000002,0.));
#1917=CARTESIAN_POINT('',(-6.99999999999844,27.2500000000002,3.9));
#1918=CARTESIAN_POINT('Origin',(-15.2499999999984,15.5000000000005,3.9));
#1919=CARTESIAN_POINT('Origin',(35.8200000000003,-23.9999999999998,0.));
#1920=CARTESIAN_POINT('',(35.8200000000003,-23.9999999999998,3.9));
#1921=CARTESIAN_POINT('',(35.8200000000003,-23.9999999999998,3.9));
#1922=CARTESIAN_POINT('',(35.8200000000003,-23.9999999999998,0.));
#1923=CARTESIAN_POINT('Origin',(35.8200000000003,-15.7599999999998,0.));
#1924=CARTESIAN_POINT('',(35.8200000000003,-15.7599999999998,3.9));
#1925=CARTESIAN_POINT('',(35.8200000000003,-15.7599999999998,3.9));
#1926=CARTESIAN_POINT('',(35.8200000000003,-15.7599999999998,0.));
#1927=CARTESIAN_POINT('Origin',(40.5000000000003,-15.7599999999998,0.));
#1928=CARTESIAN_POINT('',(40.5000000000003,-15.7599999999998,3.9));
#1929=CARTESIAN_POINT('Origin',(38.1600000000003,-19.8799999999998,3.9));
#1930=CARTESIAN_POINT('Origin',(-35.8199993965024,24.0000000000002,0.));
#1931=CARTESIAN_POINT('',(-35.8199993965024,24.0000000000002,3.9));
#1932=CARTESIAN_POINT('',(-35.8199993965024,24.0000000000002,3.9));
#1933=CARTESIAN_POINT('',(-35.8199993965024,24.0000000000002,0.));
#1934=CARTESIAN_POINT('Origin',(-35.8199993965024,15.7600000000002,0.));
#1935=CARTESIAN_POINT('',(-35.8199993965024,15.7600000000002,3.9));
#1936=CARTESIAN_POINT('',(-35.8199993965024,15.7600000000002,3.9));
#1937=CARTESIAN_POINT('',(-35.8199993965024,15.7600000000002,0.));
#1938=CARTESIAN_POINT('Origin',(-40.500000603497,15.7600000000002,0.));
#1939=CARTESIAN_POINT('',(-40.500000603497,15.7600000000002,3.9));
#1940=CARTESIAN_POINT('Origin',(-38.1599999999997,19.8800000000002,3.9));
#1941=CARTESIAN_POINT('Origin',(19.9803903372512,-22.2499999999998,0.));
#1942=CARTESIAN_POINT('',(4.98039033725116,-22.2499999999998,3.9));
#1943=CARTESIAN_POINT('',(4.98039033725116,-22.2499999999998,0.));
#1944=CARTESIAN_POINT('',(19.9803903372512,-22.2499999999998,3.9));
#1945=CARTESIAN_POINT('',(19.9803903372512,-22.2499999999998,3.9));
#1946=CARTESIAN_POINT('',(19.9803903372512,-22.2499999999998,0.));
#1947=CARTESIAN_POINT('Origin',(19.9803903372512,-27.2499999999998,0.));
#1948=CARTESIAN_POINT('',(19.9803903372512,-27.2499999999998,3.9));
#1949=CARTESIAN_POINT('Origin',(4.98039033725116,-22.2499999999998,0.));
#1950=CARTESIAN_POINT('',(4.98039033725116,-22.2499999999998,3.9));
#1951=CARTESIAN_POINT('Origin',(12.4803903372512,-24.7499999999998,3.9));
#1952=CARTESIAN_POINT('Origin',(-42.9999999999997,33.7500000000002,0.));
#1953=CARTESIAN_POINT('',(43.0000000000003,33.7500000000002,-2.));
#1954=CARTESIAN_POINT('',(43.0000000000003,33.7500000000002,0.));
#1955=CARTESIAN_POINT('',(-42.9999999999997,33.7500000000002,-2.));
#1956=CARTESIAN_POINT('',(43.0000000000003,33.7500000000002,-2.));
#1957=CARTESIAN_POINT('',(-42.9999999999997,33.7500000000002,0.));
#1958=CARTESIAN_POINT('Origin',(-42.9999999999997,-29.7499999999998,0.));
#1959=CARTESIAN_POINT('',(-42.9999999999997,-29.7499999999998,-2.));
#1960=CARTESIAN_POINT('',(-42.9999999999997,33.7500000000002,-2.));
#1961=CARTESIAN_POINT('',(-42.9999999999997,-29.7499999999998,0.));
#1962=CARTESIAN_POINT('Origin',(43.0000000000003,-29.7499999999998,0.));
#1963=CARTESIAN_POINT('',(43.0000000000003,-29.7499999999998,-2.));
#1964=CARTESIAN_POINT('',(43.0000000000003,-29.7499999999998,-2.));
#1965=CARTESIAN_POINT('',(43.0000000000003,-29.7499999999998,0.));
#1966=CARTESIAN_POINT('Origin',(43.0000000000003,33.7500000000002,0.));
#1967=CARTESIAN_POINT('',(43.0000000000003,27.2500000000002,-2.));
#1968=CARTESIAN_POINT('Origin',(3.10862446895044E-13,2.00000000000017,-2.));
#1969=UNCERTAINTY_MEASURE_WITH_UNIT(LENGTH_MEASURE(0.01),#1973,
'DISTANCE_ACCURACY_VALUE',
'Maximum model space distance between geometric entities at asserted c
onnectivities');
#1970=UNCERTAINTY_MEASURE_WITH_UNIT(LENGTH_MEASURE(0.01),#1973,
'DISTANCE_ACCURACY_VALUE',
'Maximum model space distance between geometric entities at asserted c
onnectivities');
#1971=(
GEOMETRIC_REPRESENTATION_CONTEXT(3)
GLOBAL_UNCERTAINTY_ASSIGNED_CONTEXT((#1969))
GLOBAL_UNIT_ASSIGNED_CONTEXT((#1973,#1975,#1976))
REPRESENTATION_CONTEXT('','3D')
);
#1972=(
GEOMETRIC_REPRESENTATION_CONTEXT(3)
GLOBAL_UNCERTAINTY_ASSIGNED_CONTEXT((#1970))
GLOBAL_UNIT_ASSIGNED_CONTEXT((#1973,#1975,#1976))
REPRESENTATION_CONTEXT('','3D')
);
#1973=(
LENGTH_UNIT()
NAMED_UNIT(*)
SI_UNIT(.MILLI.,.METRE.)
);
#1974=(
LENGTH_UNIT()
NAMED_UNIT(*)
SI_UNIT($,.METRE.)
);
#1975=(
NAMED_UNIT(*)
PLANE_ANGLE_UNIT()
SI_UNIT($,.RADIAN.)
);
#1976=(
NAMED_UNIT(*)
SI_UNIT($,.STERADIAN.)
SOLID_ANGLE_UNIT()
);
#1977=SHAPE_DEFINITION_REPRESENTATION(#1978,#1979);
#1978=PRODUCT_DEFINITION_SHAPE('',$,#1981);
#1979=SHAPE_REPRESENTATION('',(#1229),#1971);
#1980=PRODUCT_DEFINITION_CONTEXT('part definition',#1985,'design');
#1981=PRODUCT_DEFINITION('2026-09-05-10-40-58-027','tty-buddy',#1982,#1980);
#1982=PRODUCT_DEFINITION_FORMATION('',$,#1987);
#1983=PRODUCT_RELATED_PRODUCT_CATEGORY('tty-buddy','tty-buddy',(#1987));
#1984=APPLICATION_PROTOCOL_DEFINITION('international standard',
'automotive_design',2009,#1985);
#1985=APPLICATION_CONTEXT(
'Core Data for Automotive Mechanical Design Process');
#1986=PRODUCT_CONTEXT('part definition',#1985,'mechanical');
#1987=PRODUCT('2026-09-05-10-40-58-027','tty-buddy',$,(#1986));
#1988=PRESENTATION_STYLE_ASSIGNMENT((#1989));
#1989=SURFACE_STYLE_USAGE(.BOTH.,#1990);
#1990=SURFACE_SIDE_STYLE('',(#1991));
#1991=SURFACE_STYLE_FILL_AREA(#1992);
#1992=FILL_AREA_STYLE('Steel - Satin',(#1993));
#1993=FILL_AREA_STYLE_COLOUR('Steel - Satin',#1994);
#1994=COLOUR_RGB('Steel - Satin',0.627450980392157,0.627450980392157,0.627450980392157);
ENDSEC;
END-ISO-10303-21;
